<?xml version="1.0" encoding="utf-8"?>
<!-- Generator: Adobe Illustrator 18.0.0, SVG Export Plug-In . SVG Version: 6.00 Build 0)  -->
<!DOCTYPE svg PUBLIC "-//W3C//DTD SVG 1.1//EN" "http://www.w3.org/Graphics/SVG/1.1/DTD/svg11.dtd">
<svg version="1.1" id="Layer_1" xmlns="http://www.w3.org/2000/svg" xmlns:xlink="http://www.w3.org/1999/xlink" x="0px" y="0px"
	 viewBox="0 0 1445 564.1" enable-background="new 0 0 1445 564.1" xml:space="preserve">
<rect x="0.6" y="0.5" fill="#EF3D25" stroke="#000000" stroke-miterlimit="10" width="1443.9" height="562"/>
<rect x="0.5" y="31.5" opacity="0.47" stroke="#000000" stroke-miterlimit="10" width="1444" height="22"/>
<rect x="0.5" y="94.5" opacity="0.47" stroke="#000000" stroke-miterlimit="10" width="1444" height="22"/>
<rect x="0.5" y="157.5" opacity="0.47" stroke="#000000" stroke-miterlimit="10" width="1444" height="22"/>
<rect x="0.5" y="220.5" opacity="0.47" stroke="#000000" stroke-miterlimit="10" width="1444" height="22"/>
<rect x="0.5" y="283.5" opacity="0.47" stroke="#000000" stroke-miterlimit="10" width="1444" height="22"/>
<rect x="0.5" y="346.5" opacity="0.47" stroke="#000000" stroke-miterlimit="10" width="1444" height="22"/>
<rect x="0.5" y="409.5" opacity="0.47" stroke="#000000" stroke-miterlimit="10" width="1444" height="22"/>
<rect x="0.5" y="472.5" opacity="0.47" stroke="#000000" stroke-miterlimit="10" width="1444" height="22"/>
<rect x="0.5" y="535.5" opacity="0.47" stroke="#000000" stroke-miterlimit="10" width="1444" height="22"/>
<rect x="1412.5" y="0.5" opacity="0.47" stroke="#000000" stroke-miterlimit="10" width="22" height="562"/>
<rect x="1349.5" y="0.5" opacity="0.47" stroke="#000000" stroke-miterlimit="10" width="22" height="562"/>
<rect x="1286.5" y="0.5" opacity="0.47" stroke="#000000" stroke-miterlimit="10" width="22" height="562"/>
<rect x="1223.5" y="0.5" opacity="0.47" stroke="#000000" stroke-miterlimit="10" width="22" height="562"/>
<rect x="1160.5" y="0.5" opacity="0.47" stroke="#000000" stroke-miterlimit="10" width="22" height="562"/>
<rect x="1097.5" y="0.5" opacity="0.47" stroke="#000000" stroke-miterlimit="10" width="22" height="562"/>
<rect x="1034.5" y="0.5" opacity="0.47" stroke="#000000" stroke-miterlimit="10" width="22" height="562"/>
<rect x="971.5" y="0.5" opacity="0.47" stroke="#000000" stroke-miterlimit="10" width="22" height="562"/>
<rect x="908.5" y="0.5" opacity="0.47" stroke="#000000" stroke-miterlimit="10" width="22" height="562"/>
<line opacity="0.58" fill="none" stroke="#FFFFFF" stroke-width="2" stroke-miterlimit="10" x1="915.7" y1="0.8" x2="915.7" y2="562"/>
<line opacity="0.58" fill="none" stroke="#FFFFFF" stroke-width="2" stroke-miterlimit="10" x1="923.3" y1="0.8" x2="923.3" y2="562"/>
<line opacity="0.58" fill="none" stroke="#FFFFFF" stroke-width="2" stroke-miterlimit="10" x1="978.7" y1="0.8" x2="978.7" y2="562"/>
<line opacity="0.58" fill="none" stroke="#FFFFFF" stroke-width="2" stroke-miterlimit="10" x1="986.3" y1="0.8" x2="986.3" y2="562"/>
<line opacity="0.58" fill="none" stroke="#FFFFFF" stroke-width="2" stroke-miterlimit="10" x1="1041.7" y1="0.8" x2="1041.7" y2="562"/>
<line opacity="0.58" fill="none" stroke="#FFFFFF" stroke-width="2" stroke-miterlimit="10" x1="1049.3" y1="0.8" x2="1049.3" y2="562"/>
<line opacity="0.58" fill="none" stroke="#FFFFFF" stroke-width="2" stroke-miterlimit="10" x1="1104.7" y1="0.8" x2="1104.7" y2="562"/>
<line opacity="0.58" fill="none" stroke="#FFFFFF" stroke-width="2" stroke-miterlimit="10" x1="1112.3" y1="0.8" x2="1112.3" y2="562"/>
<line opacity="0.58" fill="none" stroke="#FFFFFF" stroke-width="2" stroke-miterlimit="10" x1="1167.7" y1="0.8" x2="1167.7" y2="562"/>
<line opacity="0.58" fill="none" stroke="#FFFFFF" stroke-width="2" stroke-miterlimit="10" x1="1175.3" y1="0.8" x2="1175.3" y2="562"/>
<line opacity="0.58" fill="none" stroke="#FFFFFF" stroke-width="2" stroke-miterlimit="10" x1="1230.7" y1="0.8" x2="1230.7" y2="562"/>
<line opacity="0.58" fill="none" stroke="#FFFFFF" stroke-width="2" stroke-miterlimit="10" x1="1238.3" y1="0.8" x2="1238.3" y2="562"/>
<line opacity="0.58" fill="none" stroke="#FFFFFF" stroke-width="2" stroke-miterlimit="10" x1="1293.7" y1="0.8" x2="1293.7" y2="562"/>
<line opacity="0.58" fill="none" stroke="#FFFFFF" stroke-width="2" stroke-miterlimit="10" x1="1301.3" y1="0.8" x2="1301.3" y2="562"/>
<line opacity="0.58" fill="none" stroke="#FFFFFF" stroke-width="2" stroke-miterlimit="10" x1="1356.7" y1="0.8" x2="1356.7" y2="562"/>
<line opacity="0.58" fill="none" stroke="#FFFFFF" stroke-width="2" stroke-miterlimit="10" x1="1364.3" y1="0.8" x2="1364.3" y2="562"/>
<line opacity="0.58" fill="none" stroke="#FFFFFF" stroke-width="2" stroke-miterlimit="10" x1="1419.7" y1="1.1" x2="1419.7" y2="562.3"/>
<line opacity="0.58" fill="none" stroke="#FFFFFF" stroke-width="2" stroke-miterlimit="10" x1="1427.3" y1="1.1" x2="1427.3" y2="562.3"/>
<rect x="845.5" y="0.7" opacity="0.47" stroke="#000000" stroke-miterlimit="10" width="22" height="562"/>
<rect x="782.5" y="0.7" opacity="0.47" stroke="#000000" stroke-miterlimit="10" width="22" height="562"/>
<rect x="719.5" y="0.7" opacity="0.47" stroke="#000000" stroke-miterlimit="10" width="22" height="562"/>
<rect x="656.5" y="0.7" opacity="0.47" stroke="#000000" stroke-miterlimit="10" width="22" height="562"/>
<rect x="593.5" y="0.7" opacity="0.47" stroke="#000000" stroke-miterlimit="10" width="22" height="562"/>
<rect x="530.5" y="0.7" opacity="0.47" stroke="#000000" stroke-miterlimit="10" width="22" height="562"/>
<rect x="467.5" y="0.7" opacity="0.47" stroke="#000000" stroke-miterlimit="10" width="22" height="562"/>
<rect x="404.5" y="0.7" opacity="0.47" stroke="#000000" stroke-miterlimit="10" width="22" height="562"/>
<line opacity="0.58" fill="none" stroke="#FFFFFF" stroke-width="2" stroke-miterlimit="10" x1="411.7" y1="1" x2="411.7" y2="562.2"/>
<line opacity="0.58" fill="none" stroke="#FFFFFF" stroke-width="2" stroke-miterlimit="10" x1="419.3" y1="1" x2="419.3" y2="562.2"/>
<line opacity="0.58" fill="none" stroke="#FFFFFF" stroke-width="2" stroke-miterlimit="10" x1="474.7" y1="1.1" x2="474.7" y2="562.2"/>
<line opacity="0.58" fill="none" stroke="#FFFFFF" stroke-width="2" stroke-miterlimit="10" x1="482.3" y1="1.1" x2="482.3" y2="562.2"/>
<line opacity="0.58" fill="none" stroke="#FFFFFF" stroke-width="2" stroke-miterlimit="10" x1="537.7" y1="1.1" x2="537.7" y2="562.2"/>
<line opacity="0.58" fill="none" stroke="#FFFFFF" stroke-width="2" stroke-miterlimit="10" x1="545.3" y1="1.1" x2="545.3" y2="562.2"/>
<line opacity="0.58" fill="none" stroke="#FFFFFF" stroke-width="2" stroke-miterlimit="10" x1="600.7" y1="1.1" x2="600.7" y2="562.2"/>
<line opacity="0.58" fill="none" stroke="#FFFFFF" stroke-width="2" stroke-miterlimit="10" x1="608.3" y1="1.1" x2="608.3" y2="562.2"/>
<line opacity="0.58" fill="none" stroke="#FFFFFF" stroke-width="2" stroke-miterlimit="10" x1="663.7" y1="1" x2="663.7" y2="562.2"/>
<line opacity="0.58" fill="none" stroke="#FFFFFF" stroke-width="2" stroke-miterlimit="10" x1="671.3" y1="1" x2="671.3" y2="562.2"/>
<line opacity="0.58" fill="none" stroke="#FFFFFF" stroke-width="2" stroke-miterlimit="10" x1="726.7" y1="1.1" x2="726.7" y2="562.2"/>
<line opacity="0.58" fill="none" stroke="#FFFFFF" stroke-width="2" stroke-miterlimit="10" x1="734.3" y1="1.1" x2="734.3" y2="562.2"/>
<line opacity="0.58" fill="none" stroke="#FFFFFF" stroke-width="2" stroke-miterlimit="10" x1="789.7" y1="1.1" x2="789.7" y2="562.2"/>
<line opacity="0.58" fill="none" stroke="#FFFFFF" stroke-width="2" stroke-miterlimit="10" x1="797.3" y1="1.1" x2="797.3" y2="562.2"/>
<line opacity="0.58" fill="none" stroke="#FFFFFF" stroke-width="2" stroke-miterlimit="10" x1="852.7" y1="1.1" x2="852.7" y2="562.2"/>
<line opacity="0.58" fill="none" stroke="#FFFFFF" stroke-width="2" stroke-miterlimit="10" x1="860.3" y1="1.1" x2="860.3" y2="562.2"/>
<rect x="341.5" y="1.6" opacity="0.47" stroke="#000000" stroke-miterlimit="10" width="22" height="562"/>
<rect x="278.5" y="1.6" opacity="0.47" stroke="#000000" stroke-miterlimit="10" width="22" height="562"/>
<rect x="215.5" y="1.6" opacity="0.47" stroke="#000000" stroke-miterlimit="10" width="22" height="562"/>
<rect x="152.5" y="1.6" opacity="0.47" stroke="#000000" stroke-miterlimit="10" width="22" height="562"/>
<rect x="89.5" y="1.6" opacity="0.47" stroke="#000000" stroke-miterlimit="10" width="22" height="562"/>
<rect x="26.5" y="1.6" opacity="0.47" stroke="#000000" stroke-miterlimit="10" width="22" height="562"/>
<line opacity="0.58" fill="none" stroke="#FFFFFF" stroke-width="2" stroke-miterlimit="10" x1="33.7" y1="1.9" x2="33.7" y2="563.1"/>
<line opacity="0.58" fill="none" stroke="#FFFFFF" stroke-width="2" stroke-miterlimit="10" x1="41.3" y1="1.9" x2="41.3" y2="563.1"/>
<line opacity="0.58" fill="none" stroke="#FFFFFF" stroke-width="2" stroke-miterlimit="10" x1="96.7" y1="1.9" x2="96.7" y2="563.1"/>
<line opacity="0.58" fill="none" stroke="#FFFFFF" stroke-width="2" stroke-miterlimit="10" x1="104.3" y1="1.9" x2="104.3" y2="563.1"/>
<line opacity="0.58" fill="none" stroke="#FFFFFF" stroke-width="2" stroke-miterlimit="10" x1="159.7" y1="1.9" x2="159.7" y2="563.1"/>
<line opacity="0.58" fill="none" stroke="#FFFFFF" stroke-width="2" stroke-miterlimit="10" x1="167.3" y1="1.9" x2="167.3" y2="563.1"/>
<line opacity="0.58" fill="none" stroke="#FFFFFF" stroke-width="2" stroke-miterlimit="10" x1="222.7" y1="1.9" x2="222.7" y2="563.1"/>
<line opacity="0.58" fill="none" stroke="#FFFFFF" stroke-width="2" stroke-miterlimit="10" x1="230.3" y1="1.9" x2="230.3" y2="563.1"/>
<line opacity="0.58" fill="none" stroke="#FFFFFF" stroke-width="2" stroke-miterlimit="10" x1="285.7" y1="1.9" x2="285.7" y2="563.1"/>
<line opacity="0.58" fill="none" stroke="#FFFFFF" stroke-width="2" stroke-miterlimit="10" x1="293.3" y1="1.9" x2="293.3" y2="563.1"/>
<line opacity="0.58" fill="none" stroke="#FFFFFF" stroke-width="2" stroke-miterlimit="10" x1="348.7" y1="1.9" x2="348.7" y2="563.1"/>
<line opacity="0.58" fill="none" stroke="#FFFFFF" stroke-width="2" stroke-miterlimit="10" x1="356.3" y1="1.9" x2="356.3" y2="563.1"/>
<line opacity="0.58" fill="none" stroke="#FFFFFF" stroke-width="2" stroke-miterlimit="10" x1="2.2" y1="550.3" x2="1443.1" y2="550.3"/>
<line opacity="0.58" fill="none" stroke="#FFFFFF" stroke-width="2" stroke-miterlimit="10" x1="2.2" y1="542.7" x2="1443.1" y2="542.7"/>
<line opacity="0.58" fill="none" stroke="#FFFFFF" stroke-width="2" stroke-miterlimit="10" x1="2.2" y1="487.3" x2="1443.2" y2="487.3"/>
<line opacity="0.58" fill="none" stroke="#FFFFFF" stroke-width="2" stroke-miterlimit="10" x1="2.2" y1="479.7" x2="1443.2" y2="479.7"/>
<line opacity="0.58" fill="none" stroke="#FFFFFF" stroke-width="2" stroke-miterlimit="10" x1="2.2" y1="424.3" x2="1443.1" y2="424.3"/>
<line opacity="0.58" fill="none" stroke="#FFFFFF" stroke-width="2" stroke-miterlimit="10" x1="2.2" y1="416.7" x2="1443.1" y2="416.7"/>
<line opacity="0.58" fill="none" stroke="#FFFFFF" stroke-width="2" stroke-miterlimit="10" x1="2.2" y1="361.3" x2="1443.2" y2="361.3"/>
<line opacity="0.58" fill="none" stroke="#FFFFFF" stroke-width="2" stroke-miterlimit="10" x1="2.2" y1="353.7" x2="1443.2" y2="353.7"/>
<line opacity="0.58" fill="none" stroke="#FFFFFF" stroke-width="2" stroke-miterlimit="10" x1="2.2" y1="298.3" x2="1443.1" y2="298.3"/>
<line opacity="0.58" fill="none" stroke="#FFFFFF" stroke-width="2" stroke-miterlimit="10" x1="2.2" y1="290.7" x2="1443.1" y2="290.7"/>
<line opacity="0.58" fill="none" stroke="#FFFFFF" stroke-width="2" stroke-miterlimit="10" x1="2.2" y1="235.3" x2="1443.2" y2="235.3"/>
<line opacity="0.58" fill="none" stroke="#FFFFFF" stroke-width="2" stroke-miterlimit="10" x1="2.2" y1="227.7" x2="1443.2" y2="227.7"/>
<line opacity="0.58" fill="none" stroke="#FFFFFF" stroke-width="2" stroke-miterlimit="10" x1="2.2" y1="172.3" x2="1443.1" y2="172.3"/>
<line opacity="0.58" fill="none" stroke="#FFFFFF" stroke-width="2" stroke-miterlimit="10" x1="2.2" y1="164.7" x2="1443.1" y2="164.7"/>
<line opacity="0.58" fill="none" stroke="#FFFFFF" stroke-width="2" stroke-miterlimit="10" x1="2.2" y1="109.3" x2="1443.2" y2="109.3"/>
<line opacity="0.58" fill="none" stroke="#FFFFFF" stroke-width="2" stroke-miterlimit="10" x1="2.2" y1="101.7" x2="1443.2" y2="101.7"/>
<line opacity="0.58" fill="none" stroke="#FFFFFF" stroke-width="2" stroke-miterlimit="10" x1="3.1" y1="46.3" x2="1444" y2="46.3"/>
<line opacity="0.58" fill="none" stroke="#FFFFFF" stroke-width="2" stroke-miterlimit="10" x1="3.1" y1="38.7" x2="1444" y2="38.7"/>
</svg>
