<?xml version="1.0" encoding="utf-8"?>
<!-- Generator: Adobe Illustrator 18.0.0, SVG Export Plug-In . SVG Version: 6.00 Build 0)  -->
<!DOCTYPE svg PUBLIC "-//W3C//DTD SVG 1.1//EN" "http://www.w3.org/Graphics/SVG/1.1/DTD/svg11.dtd">
<svg version="1.1" id="Layer_1" xmlns="http://www.w3.org/2000/svg" xmlns:xlink="http://www.w3.org/1999/xlink" x="0px" y="0px"
	 viewBox="-23.5 12.5 672 756" enable-background="new -23.5 12.5 672 756" xml:space="preserve">
<polygon fill="#7DB842" stroke="#7DB842" stroke-width="2" stroke-miterlimit="10" points="456.7,408.2 457.3,406 459,404.2 
	459.6,402.5 461.3,400.8 461.8,399.1 463,398.6 463,397.4 465.8,397.4 466.4,395.1 466.4,394 468.7,391.7 469.2,390 468.1,387.8 
	467,386.6 468.1,385.5 467,384.9 465.8,384.3 464.7,381.5 462.4,379.8 462.4,378.1 461.8,375.8 460.7,375.8 460.7,374.1 
	460.1,373.5 459.6,371.3 458.4,370.1 456.2,371.8 455,373 453.3,374.1 451,373.5 448.2,373.5 445.9,374.7 444.8,374.7 443.6,374.7 
	443.1,374.7 441.9,375.8 441.9,376.9 440.8,376.9 438.5,376.4 438.5,375.2 436.8,374.7 435.7,375.2 432.8,374.1 431.1,373.5 
	430.6,374.7 430,375.8 430.6,376.4 430.6,376.9 430.6,376.9 430,378.7 428.9,379.8 428.9,382.1 428.9,385.5 428.3,387.8 
	429.4,388.3 430,389.5 431.1,391.2 430.6,391.7 426,398 423.2,401.4 422.6,402.5 419.2,408.8 418.6,409.9 418.6,412.2 418,415.6 
	416.9,418.5 417.5,420.7 416.9,421.3 417.5,421.3 418.6,421.3 420.3,420.2 421.5,420.2 422,421.3 423.2,421.3 423.7,420.2 
	423.7,419 425.4,419 425.4,419.6 426,418.5 427.1,419 427.7,417.9 435.1,417.9 435.7,417.9 441.9,417.9 454.4,417.3 "/>
<polygon fill="#7DB842" stroke="#7DB842" stroke-width="2" stroke-miterlimit="10" points="425.4,419.6 426,418.5 427.1,419 
	427.7,417.9 438.5,417.9 456.7,416.8 489.7,436.1 491.4,438.9 490.9,440.1 491.4,441.2 492,441.8 503.4,449.7 502.8,449.7 
	503.4,450.3 503.4,452 502.8,452.6 501.1,458.3 499.4,462.3 499.4,464.5 502.2,466.8 503.9,468.5 505.1,468.5 506.2,471.9 
	505.6,473.1 505.1,472.5 503.9,473.1 503.4,475.3 503.9,478.8 505.1,479.9 504.5,482.2 503.4,483.3 503.9,485 505.1,487.3 
	504.5,487.9 505.1,489 505.1,490.7 506.2,491.3 505.6,493 506.2,494.1 507.3,496.4 506.8,498.1 510.2,500.9 512.5,501.5 
	514.2,502.6 514.2,503.8 514.7,503.8 514.2,503.8 513.6,504.9 511.9,504.4 510.8,506.1 509.6,507.2 507.3,507.2 506.2,508.3 
	503.9,508.9 503.4,509.5 502.2,510 501.1,509.5 497.7,510.6 496.5,511.2 494.8,511.2 493.7,510.6 492.6,510.6 490.9,510 
	490.3,510.6 490.9,511.7 490.3,513.5 487.4,513.5 485.7,514 484.6,513.5 483.5,513.5 483.5,512.9 482.3,512.3 481.8,512.9 
	480.6,513.5 478.9,514.6 476.1,515.2 476.6,514.6 475.5,513.5 474.4,513.5 473.2,512.9 472.1,512.3 472.1,511.7 470.9,511.7 
	470.4,512.3 468.7,512.9 460.1,512.9 458.4,519.1 459,504.4 458.4,500.9 455,497.5 454.4,496.4 453.3,495.8 452.7,495.3 
	452.2,495.3 451.6,494.7 450.5,494.7 449.9,495.3 449.9,494.7 448.8,494.1 448.2,493.5 447.1,493 447.1,493.5 446.5,493.5 
	445.9,493.5 444.2,491.8 443.6,490.1 442.5,490.1 441.9,489 440.8,489 436.8,487.9 435.1,487.9 434,486.7 434,486.2 432.8,485 
	431.7,485 430.6,484.4 429.4,484.4 426,483.3 424.3,475.9 417.5,467.4 415.8,457.1 414.6,449.2 419.2,449.2 422,448.6 423.7,446.3 
	426,444.1 426.6,442.9 428.3,441.8 429.4,440.1 429.4,438.9 429.4,436.1 428.3,436.1 427.7,435 426.6,434.4 426.6,433.3 426,432.1 
	426,431.5 426,432.1 427.1,432.1 428.3,431.5 428.9,431 429.4,429.8 430,428.1 429.4,426.4 428.9,424.2 427.7,423 427.7,421.9 
	426.6,420.7 "/>
<polygon fill="#7DB842" stroke="#7DB842" stroke-width="2" stroke-miterlimit="10" points="456.7,136.4 455.6,133.5 456.2,131.2 
	454.4,126.7 451.6,122.7 451,119.9 449.3,117 448.2,116.4 447.1,118.2 444.8,119.3 439.1,118.2 434.5,119.3 431.1,117 430.6,118.7 
	432.3,120.4 431.7,121.6 430.6,119.9 428.9,118.7 428.3,117 429.4,117 428.9,115.9 427.1,116.4 425.4,115.3 422,114.7 422,115.3 
	423.2,115.3 423.2,116.4 421.5,116.4 419.8,116.4 418,117 417.5,116.4 417.5,115.9 419.2,115.9 420.9,115.3 418.6,115.3 
	416.3,115.3 415.2,116.4 412.9,117.6 411.8,118.2 409.5,118.7 407.2,121 407.2,121.6 404.4,121.6 401,119.3 398.7,119.3 
	395.9,119.3 393,118.2 392.5,118.2 391.3,118.7 388.5,117 385.6,116.4 378.8,115.9 375.4,114.7 370.8,114.7 370.3,114.7 
	370.3,114.7 369.7,116.4 368.6,120.4 369.7,122.7 369.7,124.4 368.6,127.8 367.4,130.7 368.6,132.9 369.7,137.5 372.5,208 
	479.5,207.5 479.5,207.5 477.8,206.9 475.5,204.6 474.9,203.5 473.2,202.9 472.1,200.6 470.9,201.2 469.2,201.2 466.4,198.9 
	465.3,194.4 465.3,193.2 465.3,191 464.7,189.8 465.3,189.3 465.8,189.8 468.1,189.8 467.5,188.7 466.4,188.7 465.3,186.4 
	464.1,185.8 464.1,186.4 463.6,185.3 462.4,183 459,177.9 457.3,176.7 457.3,174.5 451.6,165.9 451.6,164.2 450.5,162.5 
	450.5,159.1 449.3,158 449.3,156.8 446.5,154 445.9,152.3 446.5,151.1 445.9,149.4 440.8,145.5 440.2,143.7 436.8,139.8 
	436.8,138.1 435.1,135.2 435.1,134.1 435.1,132.9 435.7,132.4 435.7,132.9 436.8,132.9 437.4,135.2 438,136.4 438,137.5 
	441.9,140.3 441.9,142 442.5,143.7 444.8,144.9 445.3,146.6 449.9,151.1 452.2,152.3 452.2,152.8 452.7,151.7 453.9,150.6 
	454.4,147.2 453.9,146.6 455,143.7 455,142 456.2,136.9 "/>
<polygon fill="#7DB842" stroke="#7DB842" stroke-width="2" stroke-miterlimit="10" points="372.5,208 479.5,207.5 478.9,208 
	478.9,209.2 479.5,209.7 478.9,210.3 479.5,210.3 479.5,210.9 480,211.4 480.6,213.7 482.3,216 482.3,216.6 481.8,217.1 481.8,216 
	480.6,215.4 480.6,215.4 480.6,217.1 482.9,223.9 483.5,227.4 482.9,230.8 484,234.2 485.7,237.6 486.9,237.6 490.9,240.4 
	490.9,242.1 493.1,242.1 494.8,243.3 494.8,244.4 495.4,244.4 494.3,246.1 492.6,247.3 491.4,247.3 490.9,248.4 488.6,248.4 
	487.4,249 485.7,249.5 485.7,250.7 486.3,251.2 485.7,252.4 483.5,252.4 482.3,253 482.3,254.7 481.8,256.9 482.3,257.5 
	482.9,258.1 482.3,259.2 481.2,262.1 480.6,266.6 478.9,268.3 478.9,270 477.8,271.2 477.8,273.4 478.9,276.8 479.5,278.5 
	479.5,279.1 479.5,279.7 478.3,282.5 478.3,285.4 476.1,289.4 474.9,292.2 474.4,292.2 472.7,292.8 472.1,293.9 469.8,297.9 
	469.8,299 467.5,300.7 466.4,303.6 464.7,310.4 463.6,309.8 463,310.4 462.4,311.5 460.7,313.8 460.1,315.5 460.7,316.7 
	460.7,318.4 459,320.6 458.4,323.5 458.4,326.9 458.4,330.9 457.3,332 456.7,332.6 455.6,332.6 454.4,332 452.7,332.6 451,332 
	451,333.7 449.9,334.3 448.8,336.6 449.3,337.7 451,338.3 454.4,338.3 455.6,339.4 456.7,340.5 457.3,342.3 457.9,342.3 
	459.6,345.7 461.3,346.2 461.3,346.8 461.8,347.9 463.6,347.9 464.7,349.1 465.3,350.2 467,351.9 467.5,355.3 468.1,356.5 
	468.7,359.3 465.8,362.7 463.6,366.1 462.4,366.1 460.7,367.3 460.1,368.4 459.6,369 458.4,370.1 458.4,370.1 456.2,371.8 455,373 
	453.3,374.1 451,373.5 448.2,373.5 445.9,374.7 444.8,374.7 443.6,374.7 443.1,374.7 441.9,375.8 441.9,376.9 440.8,376.9 
	438.5,376.4 438.5,375.2 436.8,374.7 435.7,375.2 432.8,374.1 431.1,373.5 430.6,374.7 430,375.8 430.6,376.4 430.6,376.9 
	430,376.4 427.7,376.4 427.1,376.4 427.1,375.8 426.6,374.1 426,373.5 425.4,371.8 424.3,371.3 422,370.7 421.5,369.6 420.3,368.4 
	419.2,366.1 418.6,365.6 416.9,365.6 415.8,366.7 415.2,367.8 412.9,368.4 412.4,368.4 412.4,367.8 411.2,367.8 408.9,367.8 
	407.8,368.4 407.2,369.6 406.1,369.6 404.4,369 402.7,367.3 401.6,366.7 400.4,366.1 399.3,365 399.3,363.9 398.7,363.3 
	398.7,363.3 398.1,362.2 396.4,361 395.9,360.5 395.3,357.6 395.3,356.5 394.2,355.9 391.3,354.8 390.2,354.2 390.7,352.5 
	390.2,351.4 387.9,351.4 387.3,350.2 387.3,347.4 386.2,346.2 383.4,344.5 382.8,345.1 381.6,344 380.5,344.5 379.4,344 
	377.7,342.3 378.2,341.7 378.2,341.1 379.4,340 379.9,338.8 379.4,337.7 377.7,337.7 376,336.6 375.4,335.4 374.3,334.9 
	372.5,334.9 370.3,333.7 369.1,332.6 368.6,330.9 369.1,329.7 368.6,329.2 365.7,329.2 365.2,329.7 362.9,329.7 361.7,328.6 
	361.7,325.8 362.3,324.1 362.9,323.5 363.4,321.8 362.3,320.1 361.2,316.7 358.9,313.8 358.3,312.7 356.6,311 356.6,310.4 
	356.6,309.3 356.1,308.1 356.1,307.6 356.1,306.4 356.6,305.3 356.1,304.1 352.6,303 352.1,301.3 352.1,299 351.5,297.3 
	352.1,296.2 350.9,295.6 352.1,295 352.1,293.3 350.9,293.3 348.7,295 347.5,293.3 347.5,291.6 350.4,288.8 351.5,287.1 
	350.9,285.4 349.2,284.2 349.8,283.1 351.5,282 352.6,280.3 351.5,279.1 351.5,278 353.2,276.3 353.8,276.3 356.6,272.3 
	357.8,270.6 357.2,269.4 357.2,267.2 358.3,266 360.6,266 362.3,266.6 364,265.5 365.2,265.5 364.6,229.6 364.6,229.6 364.6,226.8 
	373.1,225.7 "/>
<polygon fill="#7DB842" stroke="#7DB842" stroke-width="2" stroke-miterlimit="10" points="468.7,359.3 468.1,356.5 467.5,355.3 
	467,351.9 465.3,350.2 464.7,349.1 463.6,347.9 461.8,347.9 461.3,346.8 461.3,346.2 459.6,345.7 457.9,342.3 457.3,342.3 
	456.7,340.5 455.6,339.4 454.4,338.3 451,338.3 449.3,337.7 448.8,336.6 449.9,334.3 451,333.7 451,332 452.7,332.6 454.4,332 
	455.6,332.6 456.7,332.6 457.3,332 458.4,330.9 458.4,326.9 458.4,323.5 459,320.6 460.7,318.4 460.7,316.7 460.1,315.5 
	460.7,313.8 462.4,311.5 463,310.4 463.6,309.8 464.7,310.4 466.4,303.6 467.5,300.7 469.8,299 469.8,297.9 472.1,293.9 
	472.7,292.8 474.4,292.2 474.9,292.2 476.1,289.4 478.3,285.4 478.3,282.5 479.5,279.7 479.5,279.1 481.2,279.7 482.9,279.7 
	483.5,278.5 484.6,278.5 487.4,273.4 488,274 488.6,274.6 492.6,276.3 493.7,276.3 495.4,274.6 497.1,274.6 498.8,275.7 
	499.4,275.1 500.5,275.1 503.4,277.4 503.9,276.8 505.1,276.3 507.3,276.8 508.5,278.5 510.2,278.5 513,281.4 514.2,282.5 
	516.4,283.1 517,283.7 518.7,283.7 519.3,284.8 521,285.9 523.8,288.8 525.5,288.8 527.3,291.6 527.3,293.3 527.8,294.5 529,294.5 
	531.8,297.3 530.1,297.9 529.5,300.2 528.4,301.9 529,304.1 527.8,305.8 527.8,307 526.7,309.3 527.3,310.4 530.7,310.4 
	532.9,308.7 535.2,308.1 536.9,309.3 536.4,310.4 536.9,313.8 538.1,318.4 540.9,319.5 540.3,322.3 541.5,325.2 544.9,325.8 
	547.2,327.5 573.3,335.4 584.7,335.4 556.8,363.3 551.7,362.7 546,363.3 544.3,364.4 542.6,364.4 540.3,365.6 539.8,367.3 
	538.1,368.4 535.8,369.6 532.9,370.1 530.1,371.3 529.5,373 529,373 526.7,373 523.3,373.5 522.1,372.4 521,370.7 519.9,370.1 
	515.3,370.7 514.7,371.3 513,371.3 511.3,371.8 510.2,373 507.9,376.4 506.2,376.9 505.1,376.9 503.4,376.4 501.1,376.4 
	498.8,375.8 496,375.8 494.3,375.2 493.1,373.5 490.9,371.8 486.9,368.4 485.2,367.3 481.2,367.8 478.9,367.3 476.6,367.8 
	474.9,367.3 473.2,365.6 473.2,360.5 472.1,359.9 470.4,360.5 469.2,358.7 "/>
<polygon fill="#7DB842" stroke="#7DB842" stroke-width="2" stroke-miterlimit="10" points="531.8,297.3 529,294.5 527.8,294.5 
	527.3,293.3 527.3,291.6 525.5,288.8 523.8,288.8 521,285.9 519.3,284.8 518.7,283.7 517,283.7 516.4,283.1 514.2,282.5 513,281.4 
	510.2,278.5 508.5,278.5 507.3,276.8 505.1,276.3 503.9,276.8 503.4,277.4 500.5,275.1 499.4,275.1 498.8,275.7 497.1,274.6 
	495.4,274.6 493.7,276.3 492.6,276.3 488.6,274.6 488,274 487.4,273.4 484.6,278.5 483.5,278.5 482.9,279.7 481.2,279.7 
	479.5,278.5 478.9,276.8 477.8,273.4 477.8,271.2 478.9,270 478.9,268.3 480.6,266.6 481.2,262.1 482.3,259.2 482.9,258.1 
	482.3,257.5 481.8,256.9 482.3,254.7 482.3,253 483.5,252.4 485.7,252.4 486.3,251.2 485.7,250.7 485.7,249.5 487.4,249 
	488.6,248.4 490.9,248.4 491.4,247.3 492.6,247.3 494.3,246.1 495.4,244.4 495.4,244.4 497.7,246.7 501.1,256.4 502.8,262.6 
	503.4,263.2 503.9,265.5 503.9,266 505.1,266.6 505.6,268.3 506.2,271.2 507.9,271.7 507.3,269.4 507.3,269.4 507.3,267.2 
	507.9,267.2 509.6,269.4 509.1,270 510.2,272.3 511.3,273.4 512.5,272.9 513.6,272.9 514.2,272.9 515.3,272.9 517,274.6 
	517.6,275.7 520.4,276.3 521,276.8 523.8,280.3 525,282.5 527.3,283.7 528.4,284.8 529,284.8 529,284.2 529.5,285.4 531.2,288.8 
	532.4,289.4 533.5,291.1 533.5,291.6 534.1,293.3 535.2,293.3 535.8,293.9 536.9,293.3 536.9,293.3 537.5,293.9 535.8,295.6 
	534.6,296.2 533.5,296.7 "/>
<polygon fill="#7DB842" stroke="#7DB842" stroke-width="2" stroke-miterlimit="10" points="536.9,309.3 535.2,308.1 532.9,308.7 
	530.7,310.4 527.3,310.4 526.7,309.3 527.8,307 527.8,305.8 529,304.1 528.4,301.9 529.5,300.2 530.1,297.9 533.5,296.7 
	534.6,296.2 535.8,295.6 537.5,293.9 537.5,293.9 537.5,294.5 539.8,296.7 540.3,296.7 539.8,297.3 540.3,300.2 539.2,300.7 
	537.5,302.4 536.4,302.4 535.2,303.6 533.5,303.6 534.6,304.7 535.2,305.3 536.4,304.7 538.6,304.7 539.2,305.3 536.9,308.7 "/>
<polygon fill="#7DB842" stroke="#7DB842" stroke-width="2" stroke-miterlimit="10" points="529,373 529.5,373 530.1,371.3 
	532.9,370.1 535.8,369.6 538.1,368.4 539.8,367.3 540.3,365.6 542.6,364.4 544.3,364.4 546,363.3 551.7,362.7 556.8,363.3 
	584.7,335.4 573.3,335.4 547.2,327.5 544.9,325.8 541.5,325.2 540.3,322.3 540.9,319.5 538.1,318.4 536.9,313.8 536.4,310.4 
	536.9,308.7 539.2,305.3 539.8,306.4 540.3,306.4 545.5,312.1 546,313.8 547.2,313.8 549.4,316.1 551.7,316.7 554,316.1 
	555.1,314.9 557.4,313.8 558.5,313.8 561.9,311.5 562.5,311 563.1,311.5 565.4,311.5 566.5,311.5 568.2,312.1 571,312.1 
	576.2,308.7 577.9,308.1 579.6,308.7 581.3,308.7 583.6,308.7 585.8,307.6 588.7,307 589.8,307.6 590.4,307.6 594.9,307 
	596.6,305.3 598.9,305.3 600.1,305.8 600.1,305.3 602.9,304.7 604.6,303 604.6,303.6 605.7,301.9 605.2,301.9 606.3,300.7 
	606.9,300.7 606.9,300.7 608,301.3 610.3,301.9 611.4,301.9 612,302.4 610.9,303.6 610.3,305.3 610.3,306.4 609.7,307.6 
	610.3,308.1 611.4,308.1 611.4,308.7 610.3,309.3 609.7,311.5 610.3,312.7 610.9,313.8 610.3,315.5 611.4,314.9 610.9,314.9 
	611.4,314.9 612,316.1 611.4,316.1 611.4,316.1 610.3,316.1 609.7,316.1 608,318.4 609.2,319.5 608.6,321.8 608,322.9 608,325.2 
	605.2,329.2 602.9,333.7 601.8,335.4 601.2,335.4 598.9,337.1 598.9,338.3 599.5,339.4 598.3,340.5 593.8,350.2 593.2,353.1 
	589.8,357.6 589.8,359.3 584.1,367.3 583,369 580.7,371.8 575.6,377.5 565.9,386.6 561.9,390 558.5,390.6 556.3,392.3 552.8,395.1 
	547.2,401.4 545.5,402 540.3,407.1 539.8,407.7 539.2,408.8 536.9,409.4 535.2,411.1 534.6,413.3 527.3,421.3 527.3,421.9 
	520.4,416.2 521,380.9 "/>
<polygon fill="#7DB842" stroke="#7DB842" stroke-width="2" stroke-miterlimit="10" points="356.1,308.1 356.6,309.3 356.6,310.4 
	356.6,311 358.3,312.7 358.9,313.8 361.2,316.7 362.3,320.1 363.4,321.8 362.9,323.5 362.3,324.1 361.7,325.8 361.7,328.6 
	362.9,329.7 365.2,329.7 365.7,329.2 368.6,329.2 369.1,329.7 368.6,330.9 369.1,332.6 370.3,333.7 372.5,334.9 374.3,334.9 
	375.4,335.4 376,336.6 377.7,337.7 379.4,337.7 379.9,338.8 379.4,340 378.2,341.1 378.2,341.7 377.7,342.3 379.4,344 380.5,344.5 
	381.6,344 382.8,345.1 383.4,344.5 386.2,346.2 387.3,347.4 387.3,350.2 387.9,351.4 390.2,351.4 390.7,352.5 390.2,354.2 
	391.3,354.8 394.2,355.9 395.3,356.5 395.3,357.6 395.9,360.5 396.4,361 398.1,362.2 398.7,363.3 398.7,363.3 398.7,363.3 
	397,362.2 394.7,362.2 391.9,363.3 391.9,363.3 388.5,363.3 386.8,362.2 385.6,362.2 385.1,361.6 383.9,361.6 381.6,361.6 
	381.1,360.5 379.9,360.5 379.4,361.6 379.9,362.2 378.8,363.9 377.7,363.9 376.5,363.9 374.3,363.9 373.1,365 372.5,365 372,363.9 
	371.4,363.9 371.4,363.3 370.3,362.7 366.3,364.4 365.2,365 364.6,366.1 360.6,366.1 359.5,366.7 358.3,365.6 356.6,365.6 
	354.9,365.6 353.8,366.7 352.1,368.4 352.6,369.6 353.2,370.1 353.2,370.7 350.9,371.3 349.8,370.7 348.1,370.7 346.4,370.1 
	345.2,369.6 344.1,370.1 343,370.1 340.7,370.1 339,369 336.7,369 336.1,368.4 333.9,366.7 332.7,366.1 329.9,363.9 328.8,363.9 
	327.6,362.7 326.5,362.7 326.5,363.3 324.8,363.3 323.6,364.4 322.5,364.4 321.9,365 321.9,366.7 320.8,367.3 320.8,368.4 
	320.2,369 319.1,369 319.1,370.1 320.2,371.8 319.7,373 319.1,374.1 319.1,375.8 317.9,375.8 317.4,376.4 315.7,375.2 315.1,374.7 
	314,374.7 312.3,374.7 311.7,375.2 310,375.2 306,376.4 305.4,377.5 303.7,378.1 301.4,379.8 297.5,386.6 297.5,386.6 296.9,386 
	296.9,384.3 296.9,382.6 294.1,380.4 292.9,379.2 291.8,376.9 289.5,373.5 288.9,371.8 287.2,370.1 285,368.4 283.8,367.8 
	283.8,364.4 283.8,362.2 283.2,359.9 283.2,358.2 282.7,355.3 282.7,353.6 283.2,352.5 284.4,351.9 286.1,349.6 287.2,347.4 
	288.9,344.5 289.5,342.8 290.6,342.3 292.3,340 292.3,339.4 293.5,340 293.5,342.3 295.2,342.3 296.9,341.7 299.2,341.7 
	300.3,339.4 300.3,337.7 301.4,336.6 302.6,337.7 303.2,340 303.7,340.5 305.4,340 307.7,338.3 310,337.7 312.3,336 317.9,334.9 
	320.2,334.9 321.4,333.2 323.6,331.4 323.6,330.3 322.5,330.3 320.8,328.6 321.4,326.9 322.5,326.3 323.6,326.9 325.9,326.3 
	327,326.9 329.3,327.5 332.2,326.9 335.6,326.3 337.3,325.2 338.4,324.6 339,323.5 339,321.8 339,320.6 340.1,319.5 340.1,318.4 
	341.8,316.7 342.4,317.2 343,317.2 344.7,314.4 345.8,313.8 345.8,312.7 346.4,311.5 348.1,310.4 349.8,309.3 352.1,309.3 
	353.2,309.8 355.5,308.7 "/>
<polygon fill="#7DB842" stroke="#7DB842" stroke-width="2" stroke-miterlimit="10" points="364.6,229.6 364.6,226.8 373.1,225.7 
	369.7,137.5 368.6,132.9 367.4,130.7 368.6,127.8 369.7,124.4 369.7,122.7 368.6,120.4 369.7,116.4 370.3,114.7 369.1,112.5 
	368,111.3 366.3,110.8 364.6,111.3 358.9,110.2 357.8,109.1 354.9,109.1 352.1,107.9 351.5,107.3 352.1,106.8 352.1,105.6 
	348.1,103.9 346.4,103.9 343,102.8 342.4,102.2 341.3,103.4 339.6,102.2 339,102.2 336.1,103.9 331.6,103.9 327.6,106.2 
	325.9,107.9 325.3,110.8 324.2,111.3 323.6,115.9 325.3,118.7 326.5,122.1 325.9,123.8 323.6,126.7 323.1,127.3 320.2,130.1 
	317.9,130.7 314.5,129 310.6,126.1 308.3,123.8 303.7,122.1 297.5,119.3 294.6,118.7 293.5,119.3 290.1,119.3 287.2,117.6 
	284.4,112.5 284.4,109.6 282.1,106.8 276.4,106.2 273.6,103.9 268.5,103.9 265.6,102.8 259.4,103.9 254.8,102.8 253.1,101.1 
	251.4,101.1 250.8,101.7 251.4,105.1 252.5,105.6 250.3,109.1 245.1,111.9 245.1,113 243.4,115.3 241.7,115.3 240,116.4 240,117 
	240,118.2 240.6,121 240.6,123.3 240.6,123.8 240.6,124.4 240,125.5 238.9,127.3 237.7,127.8 237.2,128.4 236,128.4 236,128.4 
	234.9,129 234.9,132.4 236,132.9 237.2,134.6 237.2,140.9 237.2,143.7 237.2,144.9 237.7,149.4 238.9,152.3 237.7,156.8 237.7,158 
	238.3,160.2 238.9,163.1 237.7,164.2 236,165.9 235.5,167.1 234.3,167.1 236,168.8 237.7,171.6 239.5,175 240,175.6 240.6,177.9 
	240.6,179 240.6,181.3 241.7,182.4 242.3,184.1 242.9,185.3 246.8,185.3 249.7,185.3 251.4,186.4 252.5,188.7 254.2,192.1 
	255.4,192.7 256.5,194.4 257.7,195.5 273,199.5 274.7,200.6 292.9,193.2 "/>
<path fill="#7DB842" stroke="#7DB842" stroke-width="2" stroke-miterlimit="10" d="M236,128.4h1.1l0.6-0.6l1.1-0.6l1.1-1.7l0.6-0.6
	v-0.6l0.6-0.6v-2.3l-1.1-2.8l0.6-1.1v-1.1l1.1-1.1h2.3l1.7-2.3v-1.1l4.6-2.8l1.7-2.8l-0.6-0.6l-0.6-3.4l0.6-0.6h-1.1l-2.8-1.7v-1.1
	v-1.1l-1.1-0.6l-0.6,0.6v0.6l-1.1-0.6l-1.1-0.6l-0.6-1.1h-1.1l-2.8-1.7l-1.1-2.8l1.1-2.8l4.6-2.8l2.8-2.8l0.6-0.6L246,82l1.1-1.1
	l-0.6-1.1l-0.6-0.6v-2.8l-2.8-1.1l-2.3-2.8l0.6-2.3l2.3-1.7v-1.7l1.7-2.8v-1.7l-0.6-0.6l-3.4,2.8l-1.1,1.1l-0.6-0.6l-1.1-2.8
	l-1.1-0.6v-1.7L236,59l-1.7,0.6v1.1l-1.1-1.7l-2.3,0.6l-3.4,1.7l-2.3,2.3l0,0l-0.6,1.1l0.6,1.1l-0.6,2.8v2.8l-1.7,4l0.6,2.3l1.1,1.1
	v0.6L224,80l-0.6,1.7l1.1,1.1l-1.1,1.1l-0.6,3.4h-0.6l-0.6,1.1l-1.1,0.6l-2.3,2.3l-1.1,4.6l0.6,0.6l1.1,2.3l-0.6,1.1l1.1,1.7
	l1.1,0.6l2.3,2.3l0.6,2.3l2.3,1.1l1.1,1.1l1.1,0.6l2.3,2.3L236,128.4L236,128.4z M244,94.8v-0.6h1.7l0.6,0.6l-1.1,1.1L244,94.8z"/>
<polygon fill="#7DB842" stroke="#7DB842" stroke-width="2" stroke-miterlimit="10" points="257.7,195.5 256.5,194.4 255.4,192.7 
	254.2,192.1 252.5,188.7 251.4,186.4 249.7,185.3 246.8,185.3 242.9,185.3 242.3,184.1 241.7,182.4 240.6,181.3 240.6,179 
	240.6,177.9 240,175.6 239.5,175 237.7,171.6 236,168.8 234.3,167.1 235.5,167.1 236,165.9 237.7,164.2 238.9,163.1 238.3,160.2 
	237.7,158 237.7,156.8 238.9,152.3 237.7,149.4 237.2,144.9 237.2,143.7 237.2,140.9 237.2,134.6 236,132.9 234.9,132.4 234.9,129 
	236,128.4 230.4,110.8 228.1,107.9 226.9,107.9 225.8,106.8 223.5,106.2 223,103.9 220.7,101.7 219.5,101.1 218.4,99.4 219,98.8 
	217.8,96 217.3,96 218.4,91.4 220.1,89.1 221.8,88.6 222.4,87.4 223.5,86.9 224.1,84 224.7,82.9 223.5,81.8 224.7,80 225.2,79.5 
	225.2,78.9 224.1,77.8 223.5,75.5 225.2,70.9 224.7,68.1 225.2,65.8 224.7,64.7 225.2,63.6 224.7,63 222.4,63.6 220.7,63 
	217.3,64.1 215,62.4 212.7,61.8 212.7,62.4 211,64.1 208.2,63.6 207.6,62.4 206.5,61.3 204.2,61.8 204.2,63 202.5,63.6 201.9,64.7 
	200.8,64.1 199.1,64.1 197.4,65.8 195.1,65.8 194,63.6 191.7,63.6 190.5,63.6 188.3,63.6 186.6,63.6 185.4,63.6 183.7,63 
	182.6,63.6 182,65.3 179.7,65.3 178,64.7 175.8,67 174.6,67 172.3,65.8 170.6,66.4 167.2,66.4 165.5,65.8 161,69.2 158.7,69.8 
	157,69.8 155.3,70.9 154.7,72.7 153.6,73.8 153,73.8 152.4,73.2 150.7,73.2 150.2,74.4 149.6,74.9 147.3,74.9 145,76.1 143.9,77.2 
	143.3,78.3 141.6,80 138.8,80.6 136.5,81.2 137.1,81.8 137.6,82.9 138.8,84 138.8,85.7 139.3,86.3 139.3,89.7 139.3,93.1 
	139.9,94.3 140.5,101.1 141.6,103.4 142.2,105.1 143.3,105.6 144.5,106.8 145.6,106.8 146.2,107.3 145,109.6 145.6,110.2 
	143.9,111.9 133.7,111.9 131.4,112.5 129.1,115.9 127.4,117.6 126.8,119.3 126.8,122.1 125.7,123.8 120,128.4 110.3,133.5 
	102.9,138.1 99.5,138.6 96.1,139.2 94.4,139.2 91.6,139.2 87,140.3 84.2,142 82.5,144.3 78.5,147.2 78.5,155.1 78.5,155.1 
	78.5,157.4 78.5,157.4 78.5,157.4 110.9,179 110.9,179 169.5,218.3 170.1,222.2 172.3,223.9 175.2,223.9 178,224.5 179.7,226.8 
	182,227.4 183.7,229.1 183.1,230.2 182.6,233 183.1,234.2 185.4,235.3 189.4,234.8 192.8,233.6 192.8,233.6 192.8,233.6 
	206.5,230.2 217.3,220 "/>
<polygon fill="#7DB842" stroke="#7DB842" stroke-width="2" stroke-miterlimit="10" points="78.5,155.1 78.5,147.2 82.5,144.3 
	84.2,142 87,140.3 91.6,139.2 94.4,139.2 96.1,139.2 99.5,138.6 102.9,138.1 110.3,133.5 120,128.4 125.7,123.8 126.8,122.1 
	126.8,119.3 127.4,117.6 129.1,115.9 131.4,112.5 133.7,111.9 143.9,111.9 145.6,110.2 145,109.6 146.2,107.3 145.6,106.8 
	144.5,106.8 143.3,105.6 142.2,105.1 141.6,103.4 140.5,101.1 139.9,94.3 139.3,93.1 139.3,89.7 139.3,86.3 138.8,85.7 138.8,84 
	137.6,82.9 137.1,81.8 136.5,81.2 135.4,81.2 130.2,80.6 129.1,79.5 128.5,77.8 128,77.8 128,77.8 126.3,79.5 123.4,80 120.6,78.9 
	119.4,78.9 117.2,80 114.9,80.6 112.6,80 110.3,77.2 109.2,76.6 108.6,74.9 108.6,74.4 109.2,73.8 108.6,73.2 106.9,73.8 
	106.4,74.4 104.7,74.4 102.9,76.1 102.9,81.2 100.7,83.5 100.7,86.9 99,89.1 95,93.1 94.4,93.1 92.1,94.8 88.7,96 86.5,98.2 
	85.3,98.2 81.9,100.5 79.6,101.7 78.5,103.4 74.5,106.2 76.2,109.6 75.6,111.3 72.2,114.7 70,119.3 70,121.6 71.1,124.4 70,127.8 
	70.5,128.4 71.7,129.5 71.1,132.4 65.4,138.6 64.8,141.5 62.6,143.7 59.7,144.3 53.5,150 44.4,151.7 42.7,154.6 "/>
<polygon fill="#7DB842" stroke="#7DB842" stroke-width="2" stroke-miterlimit="10" points="78.5,157.4 78.5,155.1 42.7,154.6 
	39.2,159.1 39.2,163.1 37.5,163.1 31.3,165.9 30.7,167.6 28.4,169.3 29,171.6 23.3,179.6 23.3,182.4 18.8,185.8 17.6,187 
	15.4,191.5 15.4,192.7 11.9,197.8 11.9,198.4 13.1,199.5 11.4,200.1 8.5,205.2 7.4,205.2 6.3,206.9 6.3,209.2 5.1,210.9 5.7,213.7 
	41.5,213.7 41,197.2 42.1,194.9 43.8,193.2 46.1,193.2 49.5,193.2 50.1,169.3 77.9,169.9 "/>
<polygon fill="#7DB842" stroke="#7DB842" stroke-width="2" stroke-miterlimit="10" points="5.7,213.7 41.5,213.7 41,197.2 
	42.1,194.9 43.8,193.2 46.1,193.2 49.5,193.2 50.1,169.3 77.9,169.9 78.5,157.4 110.9,179 110.9,179 110.9,179 100.1,179.6 
	106.9,258.1 109.8,259.8 106.4,267.7 75.1,268.3 73.9,267.7 72.8,266 71.7,266 70,268.3 69.4,267.2 68.8,264.3 67.1,263.8 
	62.6,265.5 60.3,270 59.2,269.4 58,266 57.4,264.3 55.2,263.8 52.9,264.9 52.9,268.3 52.9,269.4 51.8,271.7 48.9,272.3 47.2,274 
	47.2,274 46.6,272.3 44.4,271.2 42.7,270.6 42.1,268.3 39.8,268.3 39.8,266 38.1,264.3 38.1,262.1 37,261.5 35.8,261.5 35.3,261.5 
	33.6,262.1 32.4,261.5 32.4,260.3 30.1,258.1 27.9,257.5 23.9,256.4 22.2,256.4 17.6,258.1 13.1,258.6 11.4,260.3 9.7,260.3 
	8.5,261.5 8.5,258.1 10.2,252.4 12.5,249.5 13.1,242.7 11.4,233.6 8.5,229.6 9.7,229.1 10.8,229.1 11.4,226.2 10.8,223.9 
	11.9,222.8 9.1,218.8 8.5,220 7.4,219.4 6.8,217.1 5.1,219.4 4.6,216 5.7,214.3 "/>
<polygon fill="#7DB842" stroke="#7DB842" stroke-width="2" stroke-miterlimit="10" points="47.2,274 48.9,272.3 51.8,271.7 
	52.9,269.4 52.9,268.3 52.9,264.9 55.2,263.8 57.4,264.3 58,266 59.2,269.4 60.3,270 62.6,265.5 67.1,263.8 68.8,264.3 69.4,267.2 
	70,268.3 71.7,266 72.8,266 73.9,267.7 75.1,268.3 106.4,267.7 109.8,259.8 106.9,258.1 100.1,179.6 110.9,179 169.5,218.3 
	170.1,222.2 172.3,223.9 175.2,223.9 178,224.5 179.7,226.8 182,227.4 183.7,229.1 183.1,230.2 182.6,233 183.1,234.2 185.4,235.3 
	189.4,234.8 192.8,233.6 192.8,233.6 192.2,250.7 191.7,258.6 190.5,259.8 190,262.6 189.4,264.9 184.9,267.2 182.6,268.9 
	179.7,268.9 176.9,270.6 175.2,270.6 171.2,270.6 168.9,271.7 167.2,271.7 161,272.3 158.7,271.7 158.7,272.3 158.1,271.2 
	156.4,271.2 153.6,270.6 151.3,270.6 147.3,271.2 144.5,272.9 142.2,274.6 135.4,278.5 130.2,282 129.7,283.7 125.1,284.8 
	124,284.8 121.1,284.8 121.1,285.9 120,286.5 117.7,289.9 117.7,291.1 116,293.9 113.2,298.5 110.9,300.2 109.2,301.3 109.8,303 
	110.3,305.8 108.6,305.8 108.6,308.1 109.2,309.3 108.6,311.5 107.5,312.1 105.8,314.9 102.9,313.8 102.4,312.7 102.9,312.1 
	100.7,312.1 97.8,312.7 97.8,313.2 96.7,313.8 93.3,313.8 91,312.7 89.9,312.7 87.6,314.4 87,313.2 86.5,312.1 84.2,312.1 84.2,311 
	83.6,309.8 83.6,308.1 82.5,308.1 81.3,309.3 79.6,309.3 80.8,307 82.5,304.7 82.5,304.1 80.2,303.6 79.1,303 79.6,300.2 
	79.1,298.5 76.8,296.7 76.8,295.6 75.1,296.2 74.5,296.7 72.2,296.2 70.5,296.2 68.8,298.5 67.1,298.5 65.4,300.2 63.1,300.2 
	61.4,298.5 60.3,297.9 58,299 56.9,298.5 56.9,298.5 57.4,297.3 57.4,295.6 55.2,294.5 55.2,292.8 55.7,292.2 55.7,291.1 
	54.6,289.4 54,288.2 53.5,287.6 52.3,287.6 51.2,286.5 50.1,284.2 48.3,282.5 47.8,281.4 48.9,278 48.3,276.3 48.3,274.6 "/>
<polygon fill="#7DB842" stroke="#7DB842" stroke-width="2" stroke-miterlimit="10" points="108.6,311.5 109.2,309.3 108.6,308.1 
	108.6,305.8 110.3,305.8 109.8,303 109.2,301.3 110.9,300.2 113.2,298.5 116,293.9 117.7,291.1 117.7,289.9 120,286.5 121.1,285.9 
	121.1,284.8 124,284.8 125.1,284.8 129.7,283.7 130.2,282 135.4,278.5 142.2,274.6 144.5,272.9 147.3,271.2 151.3,270.6 
	153.6,270.6 156.4,271.2 158.1,271.2 158.7,272.3 158.1,272.9 158.1,275.1 157,276.8 157,279.7 165.5,285.4 165.5,288.8 
	168.4,291.1 172.3,289.4 173.5,289.9 173.5,291.1 174,291.6 174.6,293.3 173.5,294.5 175.2,297.3 175.8,297.3 175.8,298.5 
	174,300.7 172.3,300.7 169.5,302.4 168.9,301.9 166.7,303 167.2,304.7 165.5,305.3 166.1,307.6 163.8,308.1 163.2,308.7 
	154.1,306.4 153.6,306.4 153.6,306.4 152.4,306.4 150.7,307.6 148.4,307.6 145,308.1 140.5,308.1 139.9,308.1 133.1,308.1 
	130.2,308.7 129.7,310.4 130.2,313.2 131.4,313.8 132.5,316.7 132.5,318.9 130.2,318.9 129.1,317.8 128,317.8 126.3,318.9 
	124,319.5 121.1,317.8 120.6,316.7 118.3,315.5 117.2,315.5 116,314.9 114.9,314.9 111.5,313.2 109.2,311 "/>
<polygon fill="#7DB842" stroke="#7DB842" stroke-width="2" stroke-miterlimit="10" points="8.5,261.5 9.7,260.3 11.4,260.3 
	13.1,258.6 17.6,258.1 22.2,256.4 23.9,256.4 27.9,257.5 30.1,258.1 32.4,260.3 32.4,261.5 33.6,262.1 35.3,261.5 35.8,261.5 
	37,261.5 38.1,262.1 38.1,264.3 39.8,266 39.8,268.3 42.1,268.3 42.7,270.6 44.4,271.2 46.6,272.3 47.2,274 48.3,274.6 48.3,276.3 
	48.9,278 47.8,281.4 48.3,282.5 50.1,284.2 51.2,286.5 52.3,287.6 53.5,287.6 54,288.2 54.6,289.4 55.7,291.1 55.7,292.2 
	55.2,292.8 55.2,294.5 57.4,295.6 57.4,297.3 56.9,298.5 56.9,296.7 55.2,296.7 54,295.6 52.3,295.6 51.2,296.7 48.3,295.6 
	45.5,295.6 43.8,294.5 40.4,292.8 34.7,292.2 33,292.8 33,292.8 30.7,292.2 22.8,292.2 19.3,293.3 17.6,295.6 11.9,295 9.1,296.7 
	6.8,295.6 6.8,293.9 6.3,293.3 7.4,293.9 8.5,294.5 10.2,293.3 7.4,292.2 5.1,293.3 5.1,292.2 5.7,291.6 5.7,289.4 6.8,288.8 
	11.9,288.8 13.7,286.5 15.4,286.5 17.1,284.8 18.8,285.4 19.3,285.9 20.5,284.8 21,284.2 23.3,285.9 25.6,285.9 27.9,286.5 
	30.7,287.6 32.4,287.6 33,286.5 32.4,285.4 31.9,285.4 27.9,283.1 26.2,283.1 23.3,281.4 21,281.4 19.3,280.8 17.1,282 13.7,284.2 
	11.9,284.2 11.4,284.8 7.4,284.8 6.8,284.2 8,283.1 5.7,282 6.8,282 6.8,279.7 5.1,279.7 2.8,276.3 0,274 5.7,268.9 8,264.3 "/>
<polygon fill="#7DB842" stroke="#7DB842" stroke-width="2" stroke-miterlimit="10" points="5.7,289.4 6.8,288.8 11.9,288.8 
	13.7,286.5 15.4,286.5 17.1,284.8 18.8,285.4 19.3,285.9 20.5,284.8 21,284.2 23.3,285.9 25.6,285.9 27.9,286.5 30.7,287.6 
	32.4,287.6 33,286.5 32.4,285.4 31.9,285.4 27.9,283.1 26.2,283.1 23.3,281.4 21,281.4 19.3,280.8 17.1,282 13.7,284.2 11.9,284.2 
	11.4,284.8 7.4,284.8 7.4,286.5 9.7,287.6 11.9,287.1 10.8,288.2 8,288.2 6.3,285.9 4.6,287.6 5.7,288.8 "/>
<polygon fill="#7DB842" stroke="#7DB842" stroke-width="2" stroke-miterlimit="10" points="6.8,295.6 9.1,296.7 11.9,295 
	17.6,295.6 19.3,293.3 22.8,292.2 30.7,292.2 33,292.8 33.6,295.6 33,296.7 33,300.2 34.1,301.3 33.6,302.4 32.4,303.6 29,304.1 
	26.7,305.8 25,306.4 23.9,308.1 21.6,308.7 21.6,308.7 21.6,307 17.6,307.6 19.9,305.3 18.8,304.7 19.3,304.1 18.8,303 17.1,303 
	16.5,302.4 21,302.4 21.6,301.9 19.3,300.2 17.1,300.7 14.8,301.9 13.7,301.3 13.7,300.7 11.4,300.2 10.2,299 11.4,297.3 
	10.2,297.3 7.4,297.3 6.8,296.2 "/>
<polygon fill="#7DB842" stroke="#7DB842" stroke-width="2" stroke-miterlimit="10" points="23.9,308.1 25,306.4 26.7,305.8 
	29,304.1 32.4,303.6 33.6,302.4 34.1,301.3 33,300.2 33,296.7 33.6,295.6 33,292.8 34.7,292.2 40.4,292.8 43.8,294.5 45.5,295.6 
	48.3,295.6 51.2,296.7 52.3,295.6 54,295.6 55.2,296.7 56.9,296.7 56.9,298.5 58,299 60.3,297.9 61.4,298.5 63.1,300.2 65.4,300.2 
	67.1,298.5 68.8,298.5 70.5,296.2 72.2,296.2 74.5,296.7 75.1,296.2 76.8,295.6 76.8,296.7 79.1,298.5 79.6,300.2 79.1,303 
	80.2,303.6 82.5,304.1 82.5,304.7 80.8,307 79.6,309.3 81.3,309.3 82.5,308.1 83.6,308.1 83.6,309.8 84.2,311 84.2,312.1 
	86.5,312.1 87,313.2 87.6,314.4 86.5,314.4 83,316.1 83,317.2 84.2,317.8 84.2,322.3 83.6,323.5 84.2,326.3 85.3,327.5 85.9,329.2 
	85.9,330.3 84.7,330.3 83.6,330.9 83.6,332 85.3,333.7 85.9,334.9 85.3,336.6 83,341.7 81.3,342.3 81.3,343.4 81.9,345.1 
	80.2,348.5 79.1,349.6 79.1,350.8 65.4,354.8 62,353.1 60.9,352.5 58.6,349.6 56.9,349.1 58,347.4 57.4,347.4 61.4,344.5 62,333.2 
	62,331.4 61.4,330.9 61.4,329.7 62.6,329.2 62.6,327.5 60.9,325.8 60.9,324.6 59.2,320.6 58,318.9 56.9,316.7 48.9,316.7 
	46.6,317.8 45.5,319.5 43.2,321.2 43.2,322.3 40.4,324.1 38.7,324.1 37.5,322.9 35.3,321.8 34.7,318.9 32.4,318.9 31.9,318.4 
	31.9,316.7 32.4,316.1 30.7,315.5 30.1,316.7 29,316.1 26.7,316.1 25,313.2 25.6,309.8 "/>
<path fill="#7DB842" stroke="#7DB842" stroke-width="2" stroke-miterlimit="10" d="M44.4,342.8v-1.1l-0.6-0.6h-1.1l-0.6,0.6v0.6
	l1.1,0.6L44.4,342.8L44.4,342.8z M38.7,324.1h1.1l2.8-1.7v-1.1l2.8-1.7l1.1-1.7l2.3-1.1h8l1.1,2.3l1.1,1.7l2.3,4v1.7l1.7,1.7v1.1
	l-1.1,0.6v1.7l1.1,0.6l-0.6,1.7L62,345.7l-4,2.8l-1.1-0.6h-4l-4.6-2.3L46,345l0.6-1.1l-1.1-2.8l-1.1-1.1l0.6-1.7v-0.6l-1.7,0.6
	l-1.7-2.3v-2.3l-1.1-1.7h-1.7l-0.6-1.1l1.1-2.3l-1.1-0.6v-1.1L38.7,324.1L38.7,324.1z"/>
<polygon fill="#7DB842" stroke="#7DB842" stroke-width="2" stroke-miterlimit="10" points="54,346.8 54.6,345.7 55.2,342.8 
	57.4,342.3 59.2,340 59.2,338.3 59.7,336 61.4,335.4 61.4,334.3 62,332.6 64.3,331.4 64.8,331.4 68.8,330.3 70.5,331.4 71.7,333.2 
	73.4,334.3 72.8,337.7 72.8,339.4 75.1,342.3 76.2,341.7 78.5,340 79.6,340 80.8,341.7 81.3,342.3 81.3,343.4 81.9,345.1 
	80.2,348.5 79.1,349.6 79.6,351.4 80.8,351.9 81.3,351.4 83,351.4 84.2,352.5 85.3,352.5 86.5,353.1 87,354.8 88.2,355.9 
	89.3,355.9 89.9,357.6 88.7,358.7 89.3,359.9 88.7,361 88.2,362.2 88.7,363.9 88.2,365.6 88.7,367.3 88.7,369.6 80.2,366.1 
	73.4,361 71.7,361 66,355.3 62,353.1 60.9,352.5 58.6,349.6 56.9,349.1 58,347.4 56.3,346.8 "/>
<polygon fill="#7DB842" stroke="#7DB842" stroke-width="2" stroke-miterlimit="10" points="88.7,369.6 88.7,367.3 88.2,365.6 
	88.7,363.9 88.2,362.2 88.7,361 89.3,359.9 88.7,358.7 89.9,357.6 89.3,355.9 88.2,355.9 87,354.8 86.5,353.1 85.3,352.5 
	84.2,352.5 83,351.4 81.3,351.4 80.8,351.9 79.6,351.4 79.1,349.6 80.2,348.5 81.9,345.1 81.3,343.4 81.3,342.3 83,341.7 
	85.3,336.6 85.9,334.9 85.3,333.7 83.6,332 83.6,330.9 84.7,330.3 85.9,330.3 85.9,329.2 85.3,327.5 84.2,326.3 83.6,323.5 
	84.2,322.3 84.2,317.8 83,317.2 83,316.1 86.5,314.4 89.9,312.7 91,312.7 93.3,313.8 96.7,313.8 97.8,313.2 97.8,312.7 100.7,312.1 
	102.9,312.1 102.4,312.7 102.9,313.8 105.8,314.9 107.5,312.1 109.2,311 111.5,313.2 114.9,314.9 116,314.9 117.2,315.5 
	118.3,315.5 120.6,316.7 121.1,317.8 124,319.5 126.3,318.9 128,317.8 129.1,317.8 130.2,318.9 132.5,318.9 132.5,320.1 132,322.9 
	132.5,324.6 132.5,326.3 133.7,327.5 134.8,329.7 133.7,331.4 133.7,333.2 132,334.3 129.1,338.8 129.1,340.5 128.5,341.7 
	128.5,344 128,345.1 128,349.1 126.8,349.6 126.8,350.2 128,351.4 129.1,354.8 129.7,357 131.4,357.6 132.5,359.3 132.5,361.6 
	130.8,361.6 129.1,362.2 129.1,362.7 127.4,360.5 125.7,360.5 125.7,362.7 121.1,361 117.2,362.2 105.2,362.2 101.8,362.7 
	101.8,363.9 95.6,366.1 95,366.7 92.7,366.7 89.9,369.6 "/>
<polygon fill="#7DB842" stroke="#7DB842" stroke-width="2" stroke-miterlimit="10" points="129.1,362.7 129.1,362.2 130.8,361.6 
	132.5,361.6 132.5,359.3 131.4,357.6 129.7,357 129.1,354.8 128,351.4 126.8,350.2 126.8,349.6 128,349.1 128,345.1 128.5,344 
	128.5,341.7 129.1,340.5 129.1,338.8 132,334.3 133.7,333.2 133.7,331.4 134.8,329.7 133.7,327.5 132.5,326.3 132.5,324.6 
	132,322.9 132.5,320.1 132.5,316.7 131.4,313.8 130.2,313.2 129.7,310.4 130.2,308.7 133.1,308.1 139.9,308.1 140.5,308.1 
	145,308.1 148.4,307.6 150.7,307.6 152.4,306.4 153.6,306.4 154.1,308.7 154.7,309.8 155.3,311 157,312.7 157.6,313.8 159.8,315.5 
	159.3,317.8 159.3,321.2 159.8,321.8 161,321.8 161,325.2 160.4,326.3 160.4,327.5 161,328.6 161,330.3 160.4,331.4 161,332.6 
	161,335.4 161.5,337.1 162.1,342.3 161,344 161,345.1 160.4,347.4 161,349.6 161.5,351.9 162.7,352.5 163.8,353.6 164.4,354.8 
	159.8,355.3 155.3,357.6 150.7,361.6 145.6,362.2 137.6,365.6 134.2,363.9 129.1,363.3 "/>
<polygon fill="#7DB842" stroke="#7DB842" stroke-width="2" stroke-miterlimit="10" points="163.2,308.7 154.1,306.4 153.6,306.4 
	154.1,308.7 154.7,309.8 155.3,311 157,312.7 157.6,313.8 159.8,315.5 159.3,317.8 159.3,321.2 159.8,321.8 161,321.8 161,325.2 
	160.4,326.3 160.4,327.5 161,328.6 161,330.3 160.4,331.4 161,332.6 161,335.4 161.5,337.1 162.1,342.3 161,344 161,345.1 
	160.4,347.4 161,349.6 161.5,351.9 162.7,352.5 163.8,353.6 164.4,354.8 165.5,354.8 170.1,351.9 171.2,351.9 171.2,350.2 
	170.1,347.9 170.1,345.7 169.5,343.4 169.5,332.6 170.1,330.9 170.6,329.7 170.6,328 170.1,326.3 170.1,324.1 169.5,320.1 
	167.8,315.5 166.7,314.9 165.5,313.8 163.2,312.7 162.7,309.8 "/>
<polygon fill="#7DB842" stroke="#7DB842" stroke-width="2" stroke-miterlimit="10" points="175.8,297.3 175.8,298.5 174,300.7 
	172.3,300.7 169.5,302.4 168.9,301.9 166.7,303 167.2,304.7 165.5,305.3 166.1,307.6 163.8,308.1 162.7,309.8 163.2,312.7 
	165.5,313.8 166.7,314.9 167.8,315.5 169.5,320.1 170.1,324.1 170.1,326.3 170.6,328 170.6,329.7 170.1,330.9 169.5,332.6 
	169.5,343.4 170.1,345.7 170.1,347.9 171.2,350.2 171.2,351.9 174,352.5 180.3,350.2 180.9,350.2 180.3,348.5 180.9,344 
	180.3,342.8 180.3,341.1 180.3,337.7 180.3,336 180.3,334.9 180.3,334.3 180.3,333.7 180.3,332.6 179.7,331.4 180.3,329.7 
	180.3,328.6 180.3,326.9 180.9,325.8 182,325.2 183.1,325.2 184.3,324.6 184.9,322.9 186,320.6 186.6,319.5 187.7,318.4 
	188.8,318.4 189.4,317.2 187.7,315.5 187.7,314.4 188.3,313.2 190.5,313.2 190.5,312.1 190,309.3 190,307 187.1,304.7 187.1,303.6 
	187.1,301.9 187.7,301.3 185.4,299 183.7,298.5 182,296.2 179.2,293.9 178,295.6 178.6,296.7 176.9,296.7 "/>
<path fill="#7DB842" stroke="#7DB842" stroke-width="2" stroke-miterlimit="10" d="M282.7,197.2l10.2-4l71.7,36.4l0.6,35.3l-1.1,0.6
	l-1.7,1.1l-1.7-1.1h-2.3l-1.7,1.1v2.8l1.1,1.1l-1.1,2.3l-2.8,4h-1.1l-1.7,1.7v1.1l1.1,1.1l-1.1,1.7l-1.7,1.1l-0.6,1.1l1.7,1.1v1.7
	l-1.1,1.7l-2.8,2.8v1.7l1.1,1.1l2.3-1.7h1.1v1.1l-1.1,0.6l1.1,1.1l-0.6,1.1l1.1,1.7v2.3l0.6,1.7l3.4,1.1l1.1,1.1l-0.6,1.1v1.1
	l-0.6,1.1l-2.3,1.1l-1.1-0.6h-2.3l-1.7,1.1l-2.3,1.1l-0.6,1.1v1.1l-1.1,0.6l-1.7,2.8h-1.1l-0.6-0.6l-1.1,1.7v1.1l-0.6,1.1l-0.6,1.7
	v1.1l-0.6,1.1l-1.7,0.6l-0.6,1.1l-3.4,0.6l-2.3,0.6l-2.3-0.6l-1.7-0.6h-2.3h-1.1l-1.1,0.6v1.7l1.7,1.7h1.1l0.6,1.1l-2.8,1.7
	l-1.1,1.1h-2.3l-5.1,1.1l-3.4,2.3l-2.3,1.1l-2.3,1.7h-1.7l-0.6-0.6l-0.6-2.3l-1.1-1.1l-1.1,1.1v1.7l-1.1,2.3h-2.3l-1.7,0.6h-1.7
	l-0.6-1.7l-1.1-1.1v-1.7l-1.7-2.3L289,332l-0.6-1.1l-3.4-3.4l-3.4-2.8l-1.7-0.6V323l-1.1-0.6v-1.1v-1.7l0.6-1.1v-1.7h1.1h1.7
	l1.1,0.6h1.7h1.1h1.1h1.7l1.1,0.6h1.1l1.1-0.6l-0.6-0.6l-2.3-1.7l-0.6-1.7l-1.1-0.6l-1.7-2.3v-1.7l1.1-1.1l0.6-2.3l-1.1-1.1v-0.6
	l0.6-1.1v-1.1l-1.1-2.3l-0.6-1.7l-1.1-1.1V295l-2.3-1.7l-4.6-2.3l0,0l-1.1-2.3l-2.3-2.8l-1.1-1.1l-0.6-11.4v-1.1h1.1l1.1-0.6
	l0.6-1.1l14.8-15.4l-0.6-13.1l2.3-17.1l1.1-1.1v-3.4l-6.3-7.4l0.6-1.1v-2.3L282.7,197.2L282.7,197.2L282.7,197.2z M263.9,289.4
	l-0.6,1.1l-1.1,0.6l-0.6-0.6L263.9,289.4z"/>
<polygon fill="#7DB842" stroke="#7DB842" stroke-width="2" stroke-miterlimit="10" points="187.7,301.3 185.4,299 183.7,298.5 
	182,296.2 179.2,293.9 178,295.6 178.6,296.7 176.9,296.7 175.2,297.3 173.5,294.5 174.6,293.3 174,291.6 173.5,291.1 173.5,289.9 
	172.3,289.4 168.4,291.1 165.5,288.8 165.5,285.4 157,279.7 157,276.8 158.1,275.1 158.1,272.9 158.7,271.7 161,272.3 167.2,271.7 
	168.9,271.7 171.2,270.6 175.2,270.6 176.9,270.6 179.7,268.9 182.6,268.9 184.9,267.2 189.4,264.9 190,262.6 190.5,259.8 
	191.7,258.6 192.2,250.7 192.8,233.6 206.5,230.2 217.3,220 257.7,195.5 273,199.5 274.7,200.6 282.7,197.2 283.8,198.4 
	287.8,210.9 287.8,213.1 287.2,214.3 293.5,221.7 292.9,225.1 291.8,226.2 289.5,243.3 289.5,256.4 274.7,271.2 274.1,272.3 
	273.6,272.9 272.4,272.9 272.4,274 273,284.8 271.3,284.2 270.2,285.9 269.6,287.1 269,287.6 267.9,287.1 266.8,287.1 266.2,288.2 
	263.9,288.8 263.9,289.4 261.1,290.5 259.9,289.9 257.7,289.4 254.8,288.2 250.8,287.6 248.6,288.8 244,288.2 242.3,288.8 
	240,292.2 237.7,293.3 236,293.3 232.6,291.6 230.9,291.6 228.1,289.9 225.8,289.4 225.8,288.8 224.7,287.6 223,287.1 222.4,287.6 
	220.1,288.2 219,288.8 217.3,288.8 216.7,289.9 215.6,290.5 213.9,289.4 211.6,286.5 211,285.4 208.2,284.8 207,284.2 205.9,283.7 
	203.6,283.1 202.5,283.1 200.8,283.1 200.2,283.7 197.4,283.7 196.8,283.7 195.1,283.7 193.4,284.2 192.8,284.2 191.7,284.8 
	190,286.5 189.4,287.6 190,288.2 190,288.8 189.4,289.4 190,291.1 190.5,291.6 190.5,292.8 188.8,292.8 187.1,295 187.7,295.6 
	186.6,296.7 187.7,299.6 188.8,299.6 188.8,300.2 "/>
<polygon fill="#7DB842" stroke="#7DB842" stroke-width="2" stroke-miterlimit="10" points="277.6,290.5 277.6,290.5 276.4,288.2 
	274.1,285.4 271.3,284.2 270.2,285.9 269.6,287.1 269,287.6 267.9,287.1 266.8,287.1 266.2,288.2 263.9,288.8 263.3,290.5 
	262.2,291.1 259.9,289.9 257.7,289.4 254.8,288.2 250.8,287.6 248.6,288.8 244,288.2 242.3,288.8 240,292.2 237.7,293.3 236,293.3 
	232.6,291.6 230.9,291.6 228.1,289.9 225.8,289.4 225.8,288.8 224.7,287.6 223,287.1 222.4,287.6 220.1,288.2 219,288.8 
	217.3,288.8 216.7,289.9 215.6,290.5 213.9,289.4 211.6,286.5 211,285.4 208.2,284.8 207,284.2 205.9,283.7 203.6,283.1 
	202.5,283.1 200.8,283.1 200.2,283.7 197.4,283.7 196.8,283.7 195.1,283.7 193.4,284.2 192.8,284.2 191.7,284.8 190,286.5 
	189.4,287.6 190,288.2 190,288.8 189.4,289.4 190,291.1 190.5,291.6 190.5,292.8 188.8,292.8 187.1,295 187.7,295.6 186.6,296.7 
	187.7,299.6 188.8,299.6 188.8,300.2 187.1,301.9 187.1,303.6 187.1,304.7 190,307 190,309.3 190.5,312.1 190.5,313.2 188.3,313.2 
	187.7,314.4 187.7,315.5 189.4,317.2 188.8,318.4 187.7,318.4 186.6,319.5 186,320.6 184.9,322.9 184.3,324.6 183.1,325.2 
	182,325.2 180.9,325.8 180.3,326.9 180.3,328.6 180.3,329.7 179.7,331.4 180.3,332.6 180.3,333.7 180.3,334.3 180.3,334.9 
	180.3,336 180.3,337.7 180.3,341.1 180.3,342.8 180.9,344 180.3,348.5 180.9,350.2 184.3,350.8 187.1,349.6 193.4,353.1 197.4,357 
	199.6,361 199.6,363.9 200.8,364.4 201.3,367.8 204.2,370.1 207,370.7 215.6,370.1 217.8,369 219,369.6 223,368.4 224.1,369 
	226.4,368.4 227.5,366.1 229.2,367.8 229.8,367.3 229.8,367.3 229.8,366.1 232.1,363.3 233.2,361 232.6,358.7 232.6,357 
	233.8,356.5 233.8,355.3 235.5,353.6 236.6,352.5 237.7,351.9 240,349.6 240,347.9 240.6,347.4 242.3,346.8 243.4,345.7 
	243.4,346.2 246.3,347.4 246.8,346.8 248.6,347.9 249.7,349.6 251.4,350.8 252.5,351.4 254.2,350.2 255.4,347.9 255.4,347.4 
	255.9,346.2 257.7,345.7 258.2,344.5 258.2,342.8 258.8,341.1 261.6,338.3 262.2,336.6 261.6,335.4 262.8,333.7 265,331.4 
	266.8,330.3 266.8,328.6 267.3,326.9 267.3,324.6 268.5,322.9 270.7,322.3 272.4,320.6 273,318.4 273,316.1 272.4,314.9 
	273.6,313.2 275.3,309.8 275.9,309.3 276.4,308.7 278.1,307 278.7,307 280.4,305.8 282.1,304.7 282.7,303.6 281.5,301.3 
	281.5,300.7 281,299 279.3,298.5 278.7,296.7 278.7,294.5 278.7,292.8 "/>
<polygon fill="#7DB842" stroke="#7DB842" stroke-width="2" stroke-miterlimit="10" points="229.8,367.3 229.8,366.1 232.1,363.3 
	233.2,361 232.6,358.7 232.6,357 233.8,356.5 233.8,355.3 235.5,353.6 236.6,352.5 237.7,351.9 240,349.6 240,347.9 240.6,347.4 
	242.3,346.8 243.4,345.7 243.4,346.2 246.3,347.4 246.8,346.8 248.6,347.9 249.7,349.6 251.4,350.8 252.5,351.4 254.2,350.2 
	255.4,347.9 255.4,347.4 255.9,346.2 257.7,345.7 258.2,344.5 258.2,342.8 258.8,341.1 261.6,338.3 262.2,336.6 261.6,335.4 
	262.8,333.7 265,331.4 266.8,330.3 266.8,328.6 267.3,326.9 267.3,324.6 268.5,322.9 270.7,322.3 272.4,320.6 273,318.4 273,316.1 
	272.4,314.9 273.6,313.2 275.3,309.8 275.9,309.3 276.4,308.7 278.1,307 278.7,307 280.4,305.8 282.1,304.7 282.7,303.6 
	281.5,301.3 281.5,300.7 281,299 279.3,298.5 278.7,296.7 278.7,294.5 278.7,292.8 277.6,290.5 282.1,292.8 284.4,295 284.4,297.3 
	285.5,298.5 285.5,299.6 286.7,302.4 286.7,303.6 286.1,304.1 286.1,305.3 287.2,306.4 286.7,308.7 285.5,309.8 285.5,311.5 
	287.2,313.8 288.4,314.4 288.9,316.1 291.2,318.4 292.3,318.4 291.2,319.5 290.1,318.9 288.9,318.4 287.2,318.4 286.1,318.4 
	284.4,318.4 283.2,318.4 282.1,318.4 280.4,318.4 279.3,318.4 279.3,320.1 278.7,320.6 278.7,322.3 278.7,323.5 279.8,324.1 
	279.8,324.6 281.5,325.2 285,328 288.4,332 289.5,333.2 290.6,335.4 292.3,337.7 292.3,340 290.6,342.3 289.5,342.8 288.9,344.5 
	287.2,347.4 286.1,349.6 284.4,351.9 283.2,352.5 282.7,353.6 282.7,355.3 283.2,358.2 283.2,359.9 283.8,362.2 283.8,364.4 
	283.8,367.8 285,368.4 287.2,370.1 288.9,371.8 289.5,373.5 291.8,376.9 292.9,379.2 294.1,380.4 296.9,382.6 296.9,384.3 
	296.9,386 297.5,386.6 297.5,386.6 297.5,387.2 296.9,388.3 295.8,390 295.8,390.6 296.3,391.7 296.3,392.9 295.2,392.9 
	295.2,392.3 294.1,392.3 293.5,392.3 292.9,391.7 290.6,391.7 290.1,392.3 288.9,391.2 288.4,391.2 287.8,391.7 286.7,391.7 
	286.1,391.2 285.5,390.6 284.4,391.2 283.2,390 282.7,390 282.1,390.6 281.5,390 270.2,390 269.6,389.5 268.5,389.5 267.9,389.5 
	266.2,389.5 265.6,388.9 264.5,388.9 262.8,389.5 262.2,388.9 259.4,388.9 258.8,388.9 255.9,388.9 255.4,389.5 254.2,389.5 
	253.7,389.5 253.1,390 253.1,390 242.9,390 242.3,389.5 241.2,389.5 240,390 241.2,388.3 240,387.2 241.2,383.8 241.2,380.4 
	239.5,378.1 239.5,375.8 240,374.7 238.3,372.4 236,373.5 234.9,373 233.8,372.4 232.6,367.3 230.9,367.8 "/>
<polygon fill="#7DB842" stroke="#7DB842" stroke-width="2" stroke-miterlimit="10" points="253.1,390 253.7,389.5 254.2,389.5 
	255.4,389.5 255.9,388.9 258.8,388.9 259.4,388.9 262.2,388.9 262.8,389.5 264.5,388.9 265.6,388.9 266.2,389.5 267.9,389.5 
	268.5,389.5 269.6,389.5 270.2,390 269.6,390 269.6,391.7 270.2,393.4 269.6,395.7 270.2,396.9 270.2,398 270.7,398.6 272.4,398 
	273.6,398 275.3,398 277.6,396.9 280.4,396.9 281,398 281.5,400.3 281,401.4 281.5,402.5 281,404.2 279.3,404.2 277.6,405.4 
	277.6,406.5 278.1,407.1 278.1,408.8 277.6,408.8 277.6,409.4 276.4,409.4 276.4,409.9 277,411.1 277,411.6 278.1,412.2 
	278.7,412.8 279.8,413.9 280.4,415.1 281.5,416.2 281,417.9 280.4,421.3 278.1,428.1 278.7,429.8 278.7,431 277.6,431 277,429.8 
	275.3,429.3 273.6,429.3 272.4,429.8 271.3,429.8 269,430.4 267.9,428.7 266.2,425.3 264.5,425.3 263.9,426.4 264.5,428.1 
	263.9,429.8 260.5,429.8 259.4,429.8 258.8,431 258.2,431.5 256.5,430.4 254.2,431 253.7,431.5 254.2,433.3 253.7,435 255.4,434.4 
	256.5,433.8 257.7,435 258.8,435.5 259.4,440.1 259.4,441.8 256.5,440.1 255.9,440.1 255.4,440.6 253.7,440.6 253.1,441.2 
	252.5,442.4 251.4,444.1 251.4,444.1 249.7,443.5 249.1,441.8 246.3,440.1 245.1,438.4 241.2,435 238.9,432.7 239.5,432.1 
	237.2,430.4 236,428.1 234.9,427 234.9,424.2 233.2,421.9 233.2,420.7 232.1,419.6 230.4,415.6 230.4,415.1 232.6,415.6 
	234.3,413.9 234.9,409.4 234.9,406.5 236,407.7 240,406.5 237.2,406 235.5,403.1 237.2,403.1 237.2,400.8 238.3,401.4 239.5,400.3 
	240.6,400.3 241.2,400.3 253.1,400.8 "/>
<polygon fill="#7DB842" stroke="#7DB842" stroke-width="2" stroke-miterlimit="10" points="237.2,400.8 238.3,401.4 239.5,400.3 
	240.6,400.3 241.2,400.3 253.1,400.8 253.1,390 242.9,390 242.3,389.5 241.2,389.5 240,390 239.5,390 240,391.7 237.2,395.1 
	234.9,399.1 237.2,400.3 "/>
<polygon fill="#7DB842" stroke="#7DB842" stroke-width="2" stroke-miterlimit="10" points="251.4,444.1 252.5,442.4 253.1,441.2 
	253.7,440.6 255.4,440.6 255.9,440.1 256.5,440.1 259.4,441.8 259.4,440.1 258.8,435.5 257.7,435 256.5,433.8 255.4,434.4 
	253.7,435 254.2,433.3 253.7,431.5 254.2,431 256.5,430.4 258.2,431.5 258.8,431 259.4,429.8 260.5,429.8 263.9,429.8 264.5,428.1 
	263.9,426.4 264.5,425.3 266.2,425.3 267.9,428.7 269,430.4 271.3,429.8 272.4,429.8 273.6,429.3 275.3,429.3 277,429.8 277.6,431 
	278.7,431 278.7,429.8 278.1,428.1 280.4,421.3 281,417.9 281.5,416.2 280.4,415.1 279.8,413.9 278.7,412.8 278.1,412.2 277,411.6 
	277,411.1 276.4,409.9 276.4,409.4 277.6,409.4 277.6,408.8 278.1,408.8 278.1,407.1 277.6,406.5 277.6,405.4 279.3,404.2 
	281,404.2 281.5,402.5 281,401.4 281.5,400.3 281,398 280.4,396.9 277.6,396.9 275.3,398 273.6,398 272.4,398 270.7,398.6 
	270.2,398 270.2,396.9 269.6,395.7 270.2,393.4 269.6,391.7 269.6,390 281.5,390 282.1,390.6 282.7,390 283.2,390 284.4,391.2 
	285.5,390.6 286.1,391.2 286.7,391.7 287.8,391.7 288.4,391.2 288.9,391.2 290.1,392.3 290.6,391.7 292.9,391.7 293.5,392.3 
	294.1,392.3 295.2,392.3 295.2,392.9 296.3,392.9 296.3,391.7 295.8,390.6 295.8,390 296.9,388.3 297.5,387.2 301.4,379.8 
	303.7,378.1 305.4,377.5 306,376.4 310,375.2 311.7,375.2 312.3,374.7 314,374.7 315.1,374.7 315.7,375.2 317.4,376.4 317.9,375.8 
	319.1,375.8 319.1,375.8 320.2,377.5 320.2,381.5 318.5,382.1 317.9,383.8 314,388.9 315.1,391.7 314.5,394 314,395.7 312.8,397.4 
	312.8,400.3 312.8,401.4 312.3,403.7 312.8,404.2 312.8,407.1 311.1,407.7 310.6,410.5 310.6,413.3 307.7,418.5 306,418.5 
	304.3,420.2 303.2,419.6 300.9,420.7 299.2,423 299.2,425.3 296.9,428.1 295.8,429.8 296.3,432.1 296.3,433.3 296.3,437.8 
	295.8,440.1 295.8,441.8 294.1,444.6 292.3,444.6 291.2,445.8 290.6,446.9 287.2,450.3 285.5,452.6 283.8,453.2 281.5,452 
	281,450.9 280.4,450.3 281.5,448 281.5,447.5 278.7,448.6 277,449.7 275.9,449.7 274.7,449.7 274.7,451.5 273.6,452.6 271.9,452.6 
	271.9,452 271.3,450.9 270.2,451.5 269,451.5 268.5,452 268.5,450.3 267.9,449.2 266.8,448.6 266.2,448.6 264.5,449.7 263.3,449.7 
	262.8,451.5 261.6,452 260.5,452 259.9,454.3 258.8,454.9 258.2,453.7 258.2,452 256.5,450.3 256.5,448.6 253.7,446.9 253.1,445.8 
	"/>
<polygon fill="#7DB842" stroke="#7DB842" stroke-width="2" stroke-miterlimit="10" points="268.5,452 268.5,450.3 267.9,449.2 
	266.8,448.6 266.2,448.6 264.5,449.7 263.3,449.7 262.8,451.5 261.6,452 260.5,452 259.9,454.3 258.8,454.9 259.9,456 260.5,458.8 
	259.9,460.6 259.9,461.7 261.6,460.6 263.3,460 264.5,459.4 264.5,456 265,454.9 266.8,453.7 "/>
<polygon fill="#7DB842" stroke="#7DB842" stroke-width="2" stroke-miterlimit="10" points="416.9,421.3 417.5,421.3 418.6,421.3 
	420.3,420.2 421.5,420.2 422,421.3 423.2,421.3 423.7,420.2 423.7,419 425.4,419 426.6,420.7 427.7,421.9 427.7,423 428.9,424.2 
	429.4,426.4 430,428.1 429.4,429.8 428.9,431 428.3,431.5 427.1,432.1 426,432.1 426,431.5 426,431 424.9,430.4 424.3,429.3 
	423.2,428.7 422.6,428.1 422,428.1 422,429.8 420.9,432.7 420.9,433.3 419.2,433.8 418,433.3 417.5,433.3 416.9,433.8 415.8,433.3 
	415.2,432.1 414.1,431.5 412.4,431.5 411.8,431.5 411.8,430.4 412.9,424.7 414.6,423 "/>
<polygon fill="#7DB842" stroke="#7DB842" stroke-width="2" stroke-miterlimit="10" points="414.6,449.2 419.2,449.2 422,448.6 
	423.7,446.3 426,444.1 426.6,442.9 428.3,441.8 429.4,440.1 429.4,438.9 429.4,436.1 428.3,436.1 427.7,435 426.6,434.4 
	426.6,433.3 426,432.1 426,431 424.9,430.4 424.3,429.3 423.2,428.7 422.6,428.1 422,428.1 422,429.8 420.9,432.7 420.9,433.3 
	419.2,433.8 418,433.3 417.5,433.3 416.9,433.8 415.8,433.3 415.2,432.1 414.1,431.5 412.4,431.5 411.8,431.5 411.8,432.7 
	412.9,434.4 412.9,436.7 412.9,438.9 "/>
<polygon fill="#7DB842" stroke="#7DB842" stroke-width="2" stroke-miterlimit="10" points="259.9,461.7 261.6,460.6 263.3,460 
	264.5,459.4 264.5,456 265,454.9 266.8,453.7 269,451.5 270.2,451.5 271.3,450.9 271.9,452 271.9,452.6 273.6,452.6 274.7,451.5 
	274.7,449.7 275.9,449.7 277,449.7 278.7,448.6 281.5,447.5 281.5,448 280.4,450.3 281,450.9 281.5,452 283.8,453.2 285.5,452.6 
	287.2,450.3 290.6,446.9 291.2,445.8 292.3,444.6 294.1,444.6 295.8,441.8 295.8,440.1 296.3,437.8 296.3,433.3 296.3,432.1 
	295.8,429.8 296.9,428.1 299.2,425.3 299.2,423 300.9,420.7 303.2,419.6 304.3,420.2 306,418.5 307.7,418.5 310.6,413.3 
	310.6,410.5 311.1,407.7 312.8,407.1 312.8,404.2 312.3,403.7 312.8,401.4 312.8,400.3 312.8,397.4 314,395.7 314.5,394 
	315.1,391.7 314,388.9 317.9,383.8 318.5,382.1 320.2,381.5 320.2,377.5 319.1,375.8 319.1,374.1 319.7,373 320.2,371.8 
	319.1,370.1 319.1,369 320.2,369 320.8,368.4 320.8,367.3 321.9,366.7 321.9,365 322.5,364.4 323.6,364.4 324.8,363.3 326.5,363.3 
	326.5,362.7 327.6,362.7 328.8,363.9 329.9,363.9 332.7,366.1 333.9,366.7 336.1,368.4 336.7,369 339,369 340.7,370.1 343,370.1 
	344.1,370.1 345.2,369.6 346.4,370.1 348.1,370.7 349.8,370.7 350.9,371.3 353.2,370.7 353.2,370.1 352.6,369.6 352.1,368.4 
	353.8,366.7 354.9,365.6 356.6,365.6 358.3,365.6 359.5,366.7 360.6,366.1 364.6,366.1 365.2,365 366.3,364.4 370.3,362.7 
	371.4,363.3 371.4,363.9 372,363.9 372.5,365 373.1,365 374.3,363.9 376.5,363.9 377.7,363.9 378.8,363.9 379.9,362.2 379.4,361.6 
	379.9,360.5 381.1,360.5 381.6,361.6 383.9,361.6 385.1,361.6 385.6,362.2 386.8,362.2 388.5,363.3 391.9,363.3 391.9,363.3 
	394.7,362.2 397,362.2 398.7,363.3 399.3,363.9 399.3,365 400.4,366.1 401.6,366.7 402.7,367.3 404.4,369 406.1,369.6 407.2,369.6 
	407.8,368.4 408.9,367.8 411.2,367.8 412.4,367.8 412.4,368.4 412.9,368.4 415.2,367.8 415.8,366.7 416.9,365.6 418.6,365.6 
	419.2,366.1 420.3,368.4 421.5,369.6 422,370.7 424.3,371.3 425.4,371.8 426,373.5 426.6,374.1 427.1,375.8 427.1,376.4 
	427.7,376.4 430,376.4 430.6,376.9 430,378.7 428.9,379.8 428.9,382.1 428.9,385.5 428.3,387.8 429.4,388.3 430,389.5 431.1,391.2 
	430.6,391.7 426,398 423.2,401.4 422.6,402.5 419.2,408.8 418.6,409.9 418.6,412.2 418,415.6 416.9,418.5 417.5,420.7 414.6,423 
	412.9,424.7 411.8,430.4 411.8,432.7 412.9,434.4 412.9,436.7 412.9,438.9 415.8,457.1 417.5,467.4 424.3,475.9 426,483.3 
	424.9,482.7 410.7,486.2 406.7,493 407.2,495.3 408.4,495.8 408.9,496.4 408.9,497.5 408.4,498.1 408.4,499.2 408.4,500.4 
	408.4,502.1 408.4,503.8 407.8,504.4 407.8,504.9 407.2,505.5 405.5,507.2 405.5,508.3 405.5,513.5 405.5,515.7 406.7,516.9 
	409.5,519.1 409.5,520.8 410.7,521.4 414.1,522 414.6,521.4 414.1,520.8 414.1,519.7 415.8,519.1 416.9,519.7 417.5,529.4 
	416.9,529.9 415.8,529.9 415.8,529.4 414.6,528.8 413.5,529.4 411.8,529.9 410.7,529.9 408.9,528.2 407.2,526 405.5,524.8 
	403.8,522 401.6,520.8 398.7,519.7 396.4,518.6 395.9,517.4 394.7,516.3 394.7,513.5 394.2,513.5 393,513.5 391.9,514 391.3,516.3 
	391.3,517.4 388.5,518 386.8,518 386.8,517.4 385.1,516.9 382.8,516.9 381.1,515.7 379.9,515.2 378.2,514.6 377.7,514.6 377.7,514 
	377.7,512.9 377.1,511.7 377.1,510 376.5,510 374.3,510.6 373.7,511.2 372,511.2 370.8,511.7 370.3,512.9 369.7,512.3 369.1,511.7 
	369.1,510 368.6,509.5 367.4,509.5 366.3,509.5 365.7,508.9 365.7,508.3 364,508.9 362.3,509.5 360.6,510 360,510 358.9,510.6 
	358.3,510.6 356.1,510 354.9,510 353.8,508.9 352.6,508.9 352.1,509.5 351.5,509.5 350.9,510 349.8,510.6 349.8,510 349.8,507.8 
	350.4,507.2 350.4,507.2 350.9,505.5 349.8,504.9 349.2,503.2 349.8,502.6 349.8,501.5 348.7,500.4 348.7,499.2 349.2,498.1 
	349.2,497 348.1,497 347.5,495.8 347,495.8 347,494.7 346.4,493.5 346.4,492.4 345.8,491.8 346.4,490.1 346.4,486.7 345.8,485.6 
	345.8,485 346.4,484.4 346.4,483.3 345.8,481.6 345.8,480.5 347,478.8 347,477.6 347,475.9 346.4,474.8 336.1,474.2 336.1,473.6 
	336.7,472.5 336.7,471.4 333.9,471.4 333.9,471.9 325.3,471.9 324.8,474.8 324.2,475.9 323.6,476.5 323.6,478.2 323.6,480.5 
	316.8,481 315.7,481.6 312.8,481.6 311.7,481 310,481.6 307.7,481.6 306.6,481 306,478.2 304.9,476.5 304.3,475.3 303.7,474.8 
	303.7,473.6 303.2,472.5 302.6,470.8 301.4,469.1 301.4,467.9 302,466.8 302,465.7 301.4,464.5 300.9,464 301.4,463.4 301.4,462.3 
	291.8,462.3 285.5,462.3 282.7,462.3 279.8,462.3 278.1,462.3 275.9,462.3 273.6,462.3 271.9,462.3 270.7,462.3 269,461.7 
	267.9,462.3 266.2,462.8 265.6,462.8 265,462.8 264.5,463.4 264.5,463.4 264.5,463.4 264.5,463.4 263.3,462.8 260.5,462.8 "/>
<polygon fill="#7DB842" stroke="#7DB842" stroke-width="2" stroke-miterlimit="10" points="447.1,493.5 447.1,493 448.2,493.5 
	448.8,494.1 449.9,494.7 449.9,495.3 450.5,494.7 451.6,494.7 452.2,495.3 452.7,495.3 453.3,495.8 454.4,496.4 455,497.5 
	458.4,500.9 459,504.4 458.4,519.1 458.4,520.8 459.6,529.4 462.4,530.5 463.6,531.7 464.1,532.8 465.3,532.8 468.1,536.2 
	468.7,537.3 470.9,540.2 471.5,542.5 472.1,543.6 472.7,544.7 470.9,544.7 470.9,545.9 469.8,545.9 469.8,546.4 469.8,547 
	469.8,548.1 470.9,549.3 470.4,552.7 469.8,553.8 468.7,555 467,555.5 466.4,557.8 465.8,559.5 465.3,561.2 465.8,562.9 
	465.3,564.6 463.6,565.2 463,564.1 463.6,562.9 462.4,561.2 461.3,560.7 460.1,559.5 459,558.4 457.3,556.7 457.3,555 456.2,553.3 
	456.2,551.6 457.3,549.9 457.9,548.1 459.6,545.9 459.6,543.6 459.6,541.3 459,540.2 456.7,539.6 454.4,539.6 453.9,540.2 
	452.7,540.2 452.2,540.8 450.5,539.6 450.5,538.5 449.9,537.9 449.3,536.8 448.8,536.2 446.5,536.8 446.5,535.6 445.3,533.9 
	444.2,532.8 444.2,531.7 444.8,531.1 446.5,529.4 446.5,528.2 446.5,527.7 446.5,526.5 446.5,525.4 446.5,524.8 448.8,523.1 
	449.9,522.6 450.5,522 451,521.4 451,520.8 449.9,520.3 449.9,519.1 449.3,518 449.9,518 450.5,516.9 449.3,515.7 450.5,514.6 
	449.9,513.5 449.9,511.7 449.3,510.6 449.3,508.9 451.6,506.6 451.6,506.1 452.2,505.5 451.6,503.8 451.6,502.6 449.9,501.5 
	449.9,500.4 450.5,498.1 450.5,497.5 449.3,497.5 448.2,496.4 448.2,495.3 447.1,494.7 "/>
<polygon fill="#7DB842" stroke="#7DB842" stroke-width="2" stroke-miterlimit="10" points="365.7,508.9 366.3,509.5 367.4,509.5 
	368.6,509.5 369.1,510 369.1,511.7 369.7,512.3 370.3,512.9 370.8,511.7 372,511.2 373.7,511.2 374.3,510.6 376.5,510 377.1,510 
	377.1,511.7 377.7,512.9 377.7,514 377.7,514.6 378.2,514.6 379.9,515.2 381.1,515.7 382.8,516.9 385.1,516.9 386.8,517.4 
	386.8,518 388.5,518 391.3,517.4 391.3,516.3 391.9,514 393,513.5 394.2,513.5 394.7,513.5 394.7,516.3 395.9,517.4 396.4,518.6 
	398.7,519.7 401.6,520.8 403.8,522 405.5,524.8 407.2,526 408.9,528.2 410.7,529.9 411.8,529.9 413.5,529.4 414.6,528.8 
	415.8,529.4 415.8,529.9 416.9,529.9 417.5,529.4 416.9,519.7 415.8,519.1 414.1,519.7 414.1,520.8 414.6,521.4 414.1,522 
	410.7,521.4 409.5,520.8 409.5,519.1 406.7,516.9 405.5,515.7 405.5,513.5 405.5,508.3 405.5,507.2 407.2,505.5 407.8,504.9 
	407.8,504.4 408.4,503.8 408.4,502.1 408.4,500.4 408.4,499.2 408.4,498.1 408.9,497.5 408.9,496.4 408.4,495.8 407.2,495.3 
	406.7,493 410.7,486.2 424.9,482.7 429.4,484.4 430.6,484.4 431.7,485 432.8,485 434,486.2 434,486.7 435.1,487.9 436.8,487.9 
	440.8,489 441.9,489 442.5,490.1 443.6,490.1 444.2,491.8 445.9,493.5 446.5,493.5 447.1,494.7 448.2,495.3 448.2,496.4 
	449.3,497.5 450.5,497.5 450.5,498.1 449.9,500.4 449.9,501.5 451.6,502.6 451.6,503.8 452.2,505.5 451.6,506.1 451.6,506.6 
	449.3,508.9 449.3,510.6 449.9,511.7 449.9,513.5 450.5,514.6 449.3,515.7 450.5,516.9 449.9,518 449.3,518 449.9,519.1 
	449.9,520.3 451,520.8 451,521.4 450.5,522 449.9,522.6 448.8,523.1 446.5,524.8 446.5,525.4 446.5,526.5 446.5,527.7 446.5,528.2 
	446.5,529.4 444.8,531.1 444.2,531.7 444.2,532.8 445.3,533.9 446.5,535.6 446.5,536.8 446.5,536.8 443.6,537.3 438.5,539.6 
	436.8,540.2 427.7,543.6 426,543.6 422.6,545.3 421.5,547 422.6,549.9 422.6,550.4 422,550.4 421.5,551 419.2,550.4 418.6,550.4 
	418,549.9 415.8,549.9 414.1,551 412.4,551.6 411.2,551.6 408.9,553.3 407.8,554.4 408.4,555 407.8,556.1 407.8,556.7 407.8,557.2 
	407.2,558.4 403.8,559 398.7,562.9 394.7,568.1 391.9,572 389.6,572.6 387.9,572 386.8,570.9 386.2,570.9 385.6,570.9 385.6,570.9 
	384.5,570.3 382.2,570.9 381.1,572 379.9,571.5 379.4,570.9 377.7,570.3 375.4,569.8 374.3,569.8 373.1,568.1 372.5,568.1 
	372.5,568.1 371.4,568.1 370.8,567.5 370.3,567.5 369.7,566.9 368,567.5 366.9,567.5 358.3,569.2 357.8,568.1 356.6,567.5 
	355.5,566.3 354.9,565.2 353.8,564.6 352.6,563.5 350.9,561.2 349.8,560.7 348.7,560.1 347.5,559 346.4,557.2 346.4,556.1 
	347,526.5 365.7,526.5 365.2,525.4 365.7,523.1 366.3,522.6 366.3,520.8 365.2,519.1 365.2,517.4 365.7,514 365.2,510.6 
	365.2,509.5 "/>
<polygon fill="#7DB842" stroke="#7DB842" stroke-width="2" stroke-miterlimit="10" points="358.3,569.2 357.8,568.1 356.6,567.5 
	355.5,566.3 354.9,565.2 353.8,564.6 352.6,563.5 350.9,561.2 349.8,560.7 348.7,560.1 347.5,559 346.4,557.2 346.4,556.1 
	347,526.5 365.7,526.5 365.2,525.4 365.7,523.1 366.3,522.6 366.3,520.8 365.2,519.1 365.2,517.4 365.7,514 365.2,510.6 
	365.2,509.5 365.7,508.9 365.7,508.3 364,508.9 362.3,509.5 360.6,510 360,510 358.9,510.6 358.3,510.6 356.1,510 354.9,510 
	353.8,508.9 352.6,508.9 352.1,509.5 351.5,509.5 350.9,510 349.8,510.6 349.8,510 349.8,507.8 350.4,507.2 350.4,507.2 
	350.9,505.5 349.8,504.9 349.2,503.2 349.8,502.6 349.8,501.5 348.7,500.4 348.7,499.2 349.2,498.1 349.2,497 348.1,497 
	347.5,495.8 347,495.8 347,494.7 346.4,493.5 346.4,492.4 345.8,491.8 346.4,490.1 346.4,486.7 345.8,485.6 345.8,485 346.4,484.4 
	346.4,483.3 345.8,481.6 345.8,480.5 347,478.8 347,477.6 347,475.9 346.4,474.8 336.1,474.2 336.1,473.6 336.7,472.5 336.7,471.4 
	333.9,471.4 333.9,471.9 325.3,471.9 324.8,474.8 324.2,475.9 323.6,476.5 323.6,478.2 323.6,480.5 316.8,481 315.7,481.6 
	312.8,481.6 311.7,481 310,481.6 307.7,481.6 306.6,481 306,478.2 304.9,476.5 304.3,475.3 303.7,474.8 303.7,473.6 303.2,472.5 
	302.6,470.8 301.4,469.1 301.4,467.9 302,466.8 302,465.7 301.4,464.5 300.9,464 301.4,463.4 301.4,462.3 291.8,462.3 285.5,462.3 
	282.7,462.3 279.8,462.3 278.1,462.3 275.9,462.3 273.6,462.3 271.9,462.3 270.7,462.3 269,461.7 267.9,462.3 266.2,462.8 
	265.6,462.8 265,462.8 264.5,463.4 264.5,463.4 264.5,463.4 261.6,465.1 262.8,466.2 262.8,467.4 267.3,473.1 267.9,479.9 
	270.7,483.9 270.2,487.3 267.3,490.7 269,491.8 269,494.7 270.2,497 270.2,499.2 273.6,504.9 273.6,506.6 274.7,507.8 274.7,515.7 
	271.3,522 270.2,522 266.2,525.4 265.6,527.1 261.1,531.7 261.1,534.5 259.9,535.1 259.9,542.5 257.7,545.3 257.1,548.7 
	254.8,551.6 254.8,555 254.2,557.8 254.8,561.8 254.2,564.6 254.2,565.8 254.2,565.8 255.9,566.3 255.9,566.3 257.1,566.3 
	257.1,565.2 257.7,564.6 259.9,565.2 261.1,565.8 262.2,565.2 262.2,564.1 265,562.4 266.2,561.8 267.3,562.9 267.9,562.9 
	268.5,562.4 269,562.4 270.2,562.9 270.2,563.5 271.3,564.1 271.3,564.6 271.9,565.2 273.6,566.9 275.9,567.5 277,566.9 
	277.6,566.9 278.7,565.8 279.8,565.8 280.4,566.3 313.4,566.3 314,566.3 315.1,568.1 315.7,568.6 317.4,569.8 319.7,570.3 
	320.8,569.8 321.9,570.3 321.9,570.9 323.1,571.5 324.2,570.3 325.9,570.3 328.2,570.9 329.3,570.3 329.9,569.8 330.5,569.8 
	331,569.8 333.3,571.5 334.4,572.6 336.7,572.6 337.3,572 337.3,571.5 338.4,571.5 339,571.5 340.1,572 340.7,571.5 341.3,572 
	341.8,572 342.4,572.6 343,572.6 343.5,572.6 344.1,572.6 "/>
<polygon fill="#7DB842" stroke="#7DB842" stroke-width="2" stroke-miterlimit="10" points="374.3,569.8 375.4,569.8 377.7,570.3 
	379.4,570.9 379.9,571.5 381.1,572 382.2,570.9 384.5,570.3 385.6,570.9 385.6,570.9 386.2,570.9 386.8,570.9 387.9,572 
	389.6,572.6 391.9,572 394.7,568.1 398.7,562.9 403.8,559 407.2,558.4 407.8,557.2 407.8,556.7 407.8,556.1 408.4,555 407.8,554.4 
	408.9,553.3 411.2,551.6 412.4,551.6 414.1,551 415.8,549.9 418,549.9 418.6,550.4 419.2,550.4 421.5,551 422,550.4 422.6,550.4 
	422.6,553.8 426,553.8 427.1,554.4 427.7,555 428.3,555 428.9,553.8 431.7,554.4 434,556.1 435.7,557.8 437.4,558.4 440.2,558.4 
	441.4,560.1 442.5,561.2 444.8,561.2 444.8,562.9 443.6,564.1 444.2,565.2 443.6,566.9 444.2,567.5 444.2,568.6 443.1,570.3 
	443.1,572.6 441.9,574.3 442.5,575.4 444.2,574.9 443.6,576 442.5,577.2 442.5,578.9 441.9,580.6 440.8,581.1 440.8,582.3 
	442.5,583.4 443.1,585.1 441.9,585.7 441.9,587.4 443.1,588 443.1,589.1 441.9,590.8 440.2,592.5 439.7,593.1 438.5,593.6 
	438.5,594.8 439.1,595.9 438.5,597.1 438,599.9 438,601 437.4,603.9 427.7,613.6 426.6,612.4 423.2,611.8 420.9,612.4 419.8,613 
	419.2,612.4 416.9,611.3 415.8,611.3 415.2,610.1 412.9,610.1 410.1,610.1 409.5,609.6 408.4,608.4 408.4,607.9 407.8,607.3 
	406.7,606.7 405,606.2 403.8,605.6 401.6,605 400.4,605.6 398.1,605 397.6,603.3 395.9,602.2 395.3,601 395.3,599.3 394.7,597.1 
	395.3,595.9 393.6,595.4 392.5,594.8 391.9,593.6 391.9,593.1 391.9,592.5 390.7,591.9 389.6,590.8 388.5,589.7 386.8,589.1 
	383.9,585.1 383.4,584 382.8,584 381.6,582.8 381.6,581.7 380.5,580.6 380.5,579.4 379.4,577.7 378.8,577.2 378.8,576.6 
	378.2,575.4 377.1,574.9 376,574.3 374.8,573.2 374.8,572 374.8,571.5 374.8,570.9 374.8,569.8 "/>
<polygon fill="#7DB842" stroke="#7DB842" stroke-width="2" stroke-miterlimit="10" points="374.8,569.8 374.8,570.9 374.8,571.5 
	374.8,572 374.8,573.2 376,574.3 377.1,574.9 378.2,575.4 378.8,576.6 378.8,577.2 379.4,577.7 380.5,579.4 380.5,580.6 
	381.6,581.7 381.6,582.8 382.8,584 383.4,584 383.9,585.1 386.8,589.1 388.5,589.7 389.6,590.8 390.7,591.9 391.9,592.5 
	391.9,593.1 391.9,593.6 392.5,594.8 393.6,595.4 395.3,595.9 394.7,597.1 395.3,599.3 395.3,601 395.9,602.2 397.6,603.3 
	398.1,605 400.4,605.6 401.6,605 403.8,605.6 405,606.2 406.7,606.7 407.8,607.3 408.4,607.9 408.4,608.4 409.5,609.6 410.1,610.1 
	408.9,610.7 407.8,611.3 406.7,611.3 405.5,611.8 405.5,613 405.5,614.1 403.8,614.7 402.7,615.8 401.6,615.8 400.4,615.8 
	399.8,615.8 398.1,615.8 395.9,617.5 395.3,618.7 394.2,619.2 393.6,619.8 392.5,620.4 391.9,620.9 390.7,621.5 389.6,622.1 
	387.3,625.5 386.8,627.2 387.3,628.3 387.3,629.5 386.2,630.1 385.6,630.6 384.5,630.6 383.4,631.8 382.8,632.9 382.2,633.5 
	381.6,634 380.5,634.6 379.4,635.2 377.7,635.7 376.5,636.9 377.1,639.2 376,640.3 376,641.4 375.4,643.1 376,643.7 374.3,644.8 
	373.1,644.3 372,643.7 370.8,643.7 368.6,643.7 366.9,644.3 365.2,643.7 364,644.3 360.6,642 359.5,642 358.9,640.9 355.5,640.3 
	353.2,640.9 350.9,643.1 349.8,646.5 348.1,648.3 345.2,649.4 344.7,650.5 342.4,651.7 340.7,652.2 339.6,653.4 337.3,652.8 
	335.6,653.4 333.3,652.8 331,653.4 331,651.7 332.7,648.8 332.7,646.5 330.5,641.4 329.3,639.2 326.5,636.9 326.5,636.9 
	326.5,636.9 326.5,636.3 328.2,608.4 335.6,608.4 337.3,576 344.1,576.6 352.6,574.3 355.5,573.7 356.6,573.7 357.2,573.2 
	357.8,573.7 357.8,574.9 358.3,575.4 358.3,576 357.8,577.7 358.9,577.7 361.7,575.4 363.4,573.2 365.2,571.5 366.9,571.5 
	367.4,572 368.6,572 369.7,571.5 372.5,570.3 374.3,569.8 374.3,569.8 "/>
<polygon fill="#7DB842" stroke="#7DB842" stroke-width="2" stroke-miterlimit="10" points="326.5,636.9 326.5,636.3 328.2,608.4 
	335.6,608.4 337.3,576 344.1,576.6 352.6,574.3 355.5,573.7 356.6,573.7 357.2,573.2 357.8,573.7 357.8,574.9 358.3,575.4 
	358.3,576 357.8,577.7 358.9,577.7 361.7,575.4 363.4,573.2 365.2,571.5 366.9,571.5 367.4,572 368.6,572 369.7,571.5 372.5,570.3 
	374.3,569.8 373.1,568.1 372.5,568.1 372.5,568.1 371.4,568.1 370.8,567.5 370.3,567.5 369.7,566.9 368,567.5 366.9,567.5 
	344.1,572.6 343.5,572.6 343,572.6 342.4,572.6 341.8,572 341.3,572 340.7,571.5 340.1,572 339,571.5 338.4,571.5 337.3,571.5 
	337.3,572 336.7,572.6 334.4,572.6 333.3,571.5 331,569.8 330.5,569.8 329.9,569.8 329.3,570.3 328.2,570.9 325.9,570.3 
	324.2,570.3 323.1,571.5 321.9,570.9 321.9,570.3 320.8,569.8 319.7,570.3 317.4,569.8 315.7,568.6 315.1,568.1 314,566.3 
	313.4,566.3 280.4,566.3 279.8,565.8 278.7,565.8 277.6,566.9 277,566.9 275.9,567.5 273.6,566.9 271.9,565.2 271.3,564.6 
	271.3,564.1 270.2,563.5 270.2,562.9 269,562.4 268.5,562.4 267.9,562.9 267.3,562.9 266.2,561.8 265,562.4 262.2,564.1 
	262.2,565.2 261.1,565.8 259.9,565.2 257.7,564.6 257.1,565.2 257.1,566.3 255.9,566.3 255.9,566.3 254.2,565.8 254.2,565.8 
	254.8,573.2 259.9,578.9 262.8,584 267.3,593.6 267.9,597.6 272.4,603.9 272.4,606.7 277,613.6 277,617 275.9,617.5 277.6,622.1 
	277.6,628.9 280.4,635.7 279.8,639.7 281,642.6 279.3,643.1 280.4,644.3 281,649.4 282.7,650 283.2,651.7 282.1,652.2 282.1,653.9 
	283.8,655.6 283.8,659.1 285.5,661.3 287.8,665.3 290.1,667.6 290.1,668.7 293.5,671 294.6,670.4 296.3,669.9 296.3,668.7 
	295.8,668.2 296.9,666.5 299.2,665.9 300.3,667.6 302,667.6 300.9,669.9 302,672.1 305.4,672.7 307.1,673.8 308.8,673.8 
	309.4,673.8 311.1,674.4 311.7,673.8 313.4,673.8 314,675 315.1,674.4 316.2,675 316.2,672.7 316.8,672.1 317.9,671.6 319.1,669.9 
	321.4,668.7 324.2,669.3 325.3,669.3 "/>
<polygon fill="#7DB842" stroke="#7DB842" stroke-width="2" stroke-miterlimit="10" points="427.7,613.6 437.4,603.9 438,601 
	438,599.9 438.5,597.1 439.1,595.9 438.5,594.8 438.5,593.6 439.7,593.1 440.2,592.5 441.9,590.8 443.1,589.1 443.1,588 
	441.9,587.4 441.9,585.7 443.1,585.1 442.5,583.4 440.8,582.3 440.8,581.1 441.9,580.6 442.5,578.9 442.5,577.2 443.6,576 
	444.2,574.9 442.5,575.4 441.9,574.3 443.1,572.6 443.1,570.3 444.2,568.6 444.2,567.5 443.6,566.9 444.2,565.2 443.6,564.1 
	444.8,562.9 444.8,561.2 442.5,561.2 441.4,560.1 440.2,558.4 437.4,558.4 435.7,557.8 434,556.1 431.7,554.4 428.9,553.8 
	428.3,555 427.7,555 427.1,554.4 426,553.8 422.6,553.8 422.6,549.9 421.5,547 422.6,545.3 426,543.6 427.7,543.6 436.8,540.2 
	438.5,539.6 443.6,537.3 446.5,536.8 448.8,536.2 449.3,536.8 449.9,537.9 450.5,538.5 450.5,539.6 452.2,540.8 452.7,540.2 
	453.9,540.2 454.4,539.6 456.7,539.6 459,540.2 459.6,541.3 459.6,543.6 459.6,545.9 457.9,548.1 457.3,549.9 456.2,551.6 
	456.2,553.3 457.3,555 457.3,556.7 459,558.4 460.1,559.5 461.3,560.7 462.4,561.2 463.6,562.9 463,564.1 463.6,565.2 465.3,564.6 
	465.8,562.9 465.3,561.2 465.8,559.5 466.4,557.8 467,555.5 468.7,555 469.8,553.8 470.4,552.7 470.9,549.3 469.8,548.1 469.8,547 
	469.8,546.4 469.8,545.9 470.9,545.9 470.9,544.7 472.7,544.7 472.1,543.6 471.5,542.5 470.9,540.2 468.7,537.3 468.1,536.2 
	465.3,532.8 464.1,532.8 463.6,531.7 462.4,530.5 459.6,529.4 458.4,520.8 460.1,512.9 468.7,512.9 470.4,512.3 470.9,511.7 
	472.1,511.7 472.1,512.3 473.2,512.9 474.4,513.5 475.5,513.5 476.6,514.6 476.1,515.2 478.9,514.6 480.6,513.5 481.8,512.9 
	482.3,512.3 483.5,512.9 483.5,513.5 484.6,513.5 485.7,514 487.4,513.5 490.3,513.5 490.9,511.7 490.3,510.6 490.9,510 
	492.6,510.6 493.7,510.6 494.8,511.2 496.5,511.2 497.7,510.6 501.1,509.5 502.2,510 503.4,509.5 503.9,508.9 506.2,508.3 
	507.3,507.2 509.6,507.2 510.8,506.1 511.9,504.4 513.6,504.9 514.2,503.8 514.7,503.8 515.3,504.4 514.7,506.6 514.2,507.2 
	514.7,507.8 513,510.6 513,511.2 513,512.3 513,512.9 512.5,513.5 513,516.3 514.2,518.6 513.6,519.1 513.6,521.4 514.2,522 
	514.2,524.3 513,524.8 513.6,527.1 513,531.7 512.5,531.7 513,532.2 513,536.8 511.3,536.8 511.3,537.3 511.9,537.9 513.6,537.9 
	514.2,538.5 514.7,541.9 513.6,543 513,543.6 513.6,544.2 513,545.3 511.9,545.3 510.8,546.4 510.8,547 511.3,546.4 512.5,547 
	511.9,548.1 511.3,549.9 510.2,549.9 508.5,552.7 508.5,553.3 506.8,556.1 505.1,556.1 505.1,557.8 499.4,561.2 498.8,561.2 
	498.2,562.4 492.6,565.2 490.3,565.2 490.3,565.8 487.4,566.9 484,569.2 482.9,568.6 482.9,569.8 480.6,572.6 479.5,573.2 
	478.9,571.5 478.9,573.7 477.8,574.3 477.2,575.4 473.8,577.7 473.8,578.3 472.7,579.4 472.1,579.4 472.1,580.6 469.8,580.6 
	465.3,584 465.3,586.3 463.6,587.4 461.8,587.4 460.7,588.5 459,587.4 458.4,587.4 458.4,588 459,589.1 459,590.8 458.4,591.4 
	458.4,593.1 457.9,594.2 460.1,597.6 460.1,598.8 459,599.9 460.1,600.5 460.7,601.6 460.7,603.9 461.8,605.6 461.8,611.3 
	461.8,613.6 463,613.6 463,611.8 463.6,609.6 464.1,611.3 464.1,611.3 464.1,614.1 463.6,614.7 463.6,617 463.6,617.5 462.4,620.4 
	462.4,622.1 461.8,622.7 461.8,624.9 461.3,624.9 461.8,626.1 463,625.5 463,626.6 462.4,628.3 461.8,630.6 458.4,634 452.7,636.3 
	444.8,638 441.9,640.9 439.7,641.4 438.5,642.6 437.4,643.7 436.8,646 436.2,645.4 435.1,646 435.7,646.5 436.2,648.3 436.2,650 
	437.4,648.8 438.5,649.4 439.1,647.7 439.7,647.7 439.7,648.3 439.1,651.1 438,652.8 438,653.9 436.2,653.9 433.4,653.4 
	432.3,653.4 432.3,652.8 432.8,651.1 432.8,650 433.4,649.4 432.3,648.3 431.1,647.1 430.6,646.5 430.6,646.5 430.6,643.7 
	430.6,640.9 431.1,638 431.1,631.2 430.6,628.9 430,627.2 430,625.5 430,624.9 430,620.9 428.9,618.7 428.3,616.4 428.3,614.1 "/>
<polygon fill="#7DB842" stroke="#7DB842" stroke-width="2" stroke-miterlimit="10" points="430.6,646.5 430.6,646.5 431.1,647.1 
	432.3,648.3 433.4,649.4 432.8,650 432.8,651.1 432.3,652.8 432.3,653.4 431.7,653.4 430.6,654.5 431.1,655.6 430.6,657.4 
	428.9,657.9 425.4,657.4 422.6,655.6 421.5,653.9 420.9,653.4 420.3,652.2 420.9,650 423.2,646 423.7,644.3 424.9,643.1 
	427.1,644.8 428.9,646 "/>
<path fill="#7DB842" stroke="#7DB842" stroke-width="2" stroke-miterlimit="10" d="M293.5,671l1.1-0.6l1.7-0.6v-1.1l-0.6-0.6
	l1.1-1.7l2.3-0.6l1.1,1.7h1.7l-0.6,1.7l1.1,2.8l2.8,0.6l1.7,1.1l1.1-0.6l1.1,0.6h1.7l0.6-0.6h1.1l0.6,1.1h1.1h1.1v-1.7l0.6-0.6
	l1.1-0.6l0.6-1.7l2.3-1.1h2.8h1.1l1.1-32.4l2.8,2.3l1.1,2.3l2.3,5.1v2.3l-1.1,2.8v1.7l2.3-0.6l2.3,0.6l1.1-0.6l2.3,0.6l1.1-1.1
	l1.7-0.6l1.7-1.1l0.6-1.1l2.8-1.1l1.7-1.7l1.1-3.4l2.3-2.3h2.3l2.8,0.6l1.1,1.1h1.1l3.4,1.7h1.1l1.7,0.6l1.7-0.6h2.3h1.1l0.6,1.1
	l1.1,0.6l2.3-1.1l-0.6-0.6l0.6-1.7v-1.1l0.6-1.1v-2.3l0.6-1.7l1.7-0.6l1.1-0.6h1.1l0.6-0.6l0.6-0.6l0.6-1.1l1.1-1.1h1.1l0.6-0.6h1.1
	v-1.1l1.7-2.3v-2.3l2.3-3.4l1.1-0.6h1.1l0.6-0.6l1.1-0.6l0.6-0.6l1.1-0.6l1.1-1.1l1.7-1.7l1.7-0.6l0.6,0.6h0.6h1.7l1.1-1.1h1.1
	l0.6-1.1v-1.1l1.1-0.6h1.7l0.6-0.6l4-0.6l2.3,0.6l0.6,1.1h1.1l1.7,1.1l0.6,0.6l1.1-0.6l2.3-0.6l2.8,0.6l1.7,1.1l0.6,2.3l0.6,2.3
	l1.1,2.3v4v0.6v1.7l0.6,1.7l0.6,2.3v6.8l-0.6,2.8v2.8v2.8l-1.7-0.6l-1.1-1.1l-2.3-1.1l-1.7,0.6l-0.6,1.7l-2.3,4l-0.6,2.3l0.6,1.1
	l1.1,1.1l1.1,1.7l2.8,1.7h3.4l1.1-0.6l0.6-1.7v-1.1l1.1-0.6l1.7-0.6l2.8,0.6h1.7v0.6l-1.1,1.1h0.6l-1.1,3.4v2.8l-1.1,2.8l-1.1,3.4
	l-1.1,1.7l-0.6,1.7l-2.3,2.8H428l-0.6,0.6l-1.7,0.6l-0.6,1.1l-2.3,1.1l-1.1,2.3l-1.7,2.3v1.1l-1.1,1.7H418l-1.1,2.8l-4,6.3l-2.8,2.8
	l-0.6,2.3l-1.7,0.6l-1.7,1.7H405l-0.6,0.6l-9.1,9.1h-1.1v0.6l-1.7,1.7l-6.3,4l-1.1,1.7l-2.3,0.6v0.6l-3.4,1.1l-1.7,1.1h-2.3
	l-1.1-0.6h-2.8l-2.3,0.6l0.6,1.1l1.1,1.1v0.6H368l-1.7-1.1h-1.7l-1.1,1.1l0.6,1.1l-0.6,0.6l-4.6-1.1l-1.1-1.1l-4-1.1l-2.8,0.6v0.6
	l-1.1,0.6l-2.3-1.1H343l-1.1,0.6l-0.6,1.7l-1.1-0.6l-1.1,0.6l-1.1,0.6l-0.6,0.6H335l-1.1,0.6l-2.8-1.1h-2.3l-0.6,0.6l-2.3-0.6
	l-1.7,2.3l-1.7,0.6l-0.6,1.1l-1.1-0.6l-0.6,0.6l-4.6-2.3l-1.1,0.6v-2.3l-1.7-1.1l-1.1,0.6l-0.6-0.6l0.6-0.6l-0.6-1.7l-2.3-0.6
	l-1.7,1.1v1.7L306,726v-1.7l0.6-1.7l-0.6-2.3l1.1-1.7l-1.7-2.8l-1.7-1.1l-1.1-2.3v-2.3l1.1-1.1l1.1,1.1h0.6l1.1-1.1l0.6-2.8
	l-1.1-2.8v-1.1l-2.8-4v-1.7l-2.3-3.4l-1.1-5.1l-1.7-5.1v-2.3l-1.7-5.7l-2.8-2.3L293.5,671L293.5,671L293.5,671z M388.5,688.1
	l1.1,1.1l1.1,1.1l2.3,0.6h1.7l0.6-1.1l0.6-0.6l0.6-2.3l1.7-0.6l1.1-0.6l1.7-0.6l1.1,0.6l1.7-1.1l0.6-1.1l-0.6-0.6v-1.1l1.7-0.6
	l1.7-1.1v-2.3l-1.1-3.4l-1.7-1.7l-1.1,0.6l-1.1-1.1l-0.6,0.6l-1.1-0.6h-1.1l-0.6,0.6l-1.1,0.6l-0.6,1.1l-3.4,0.6l-2.3,1.7l-0.6,2.3
	l-2.3,1.7l-1.1,0.6l0.6,1.7l1.1,1.1v1.1l1.1,1.1L388.5,688.1z"/>
<polygon fill="#7DB842" stroke="#7DB842" stroke-width="2" stroke-miterlimit="10" points="388.5,688.1 388.5,686.4 387.3,685.2 
	387.3,684.7 386.2,683.5 385.6,681.8 386.8,680.7 389,679 389.6,676.7 391.9,675 395.3,674.4 395.9,673.3 397,672.7 397.6,672.1 
	398.7,672.1 399.3,672.7 399.8,672.1 401.6,673.3 402.7,672.7 404.4,674.4 406.1,677.8 406.1,680.1 404.4,681.2 402.7,682.4 
	403.3,683.5 403.8,684.1 403.3,685.2 401.6,686.4 401,686.4 399.3,686.4 398.1,686.9 396.4,687.5 395.9,689.8 395.3,690.3 
	394.7,691.5 393,691.5 390.7,690.9 390.2,689.2 "/>
<path fill="#2DA3DC" stroke="#000000" stroke-miterlimit="10" d="M458.4,370.1l1.1-1.1h0.6l1.1-1.1l1.7-1.7l1.1,0.6l2.3-3.4l3.4-4
	l1.1,1.7l1.7-0.6h1.1v5.1l1.7,1.7l1.7,0.6l2.3-0.6l2.3,0.6h4.6l1.7,1.1l4,3.4l2.3,1.7l1.7,1.7l1.1,0.6h3.4l1.7,1.1l2.3-0.6l1.7,0.6
	l0,0h1.7l2.3-3.4l1.1-1.1l1.7-0.6h1.1l1.1-0.6l4-0.6l1.1,0.6l1.1,1.7l1.7,1.1l3.4-0.6h2.3l-8.5,8v35.3l6.3,5.7v0.6l-2.8,3.4h-0.6
	l-1.1,1.1l0.6,1.1l-2.8,1.1l-1.7,2.3h-2.8l-1.1,0.6v0.6l-1.1,1.7v1.1l0.6,0.6l-1.7,0.6l-1.7,1.7v2.3l-1.1,2.8l-3.4,4.6l-1.7,0.6
	h-0.6l-11.4-8l-0.6-1.1l-0.6-0.6l0.6-1.1l-1.7-2.8l-33-19.3h-2.3l2.3-8.5l0.6-2.3l1.7-1.7l1.1-2.3l1.7-1.1l0.6-1.7l1.1-1.1v-0.6h2.8
	l0.6-2.3V394l2.3-2.3V390l-0.6-1.7l-1.1-1.1l0.6-1.1l-1.1-0.6l-1.1-0.6l-1.1-2.8l-2.3-1.7v-1.7L462,377h-1.1v-1.7l-1.1-0.6l-0.6-2.3
	L458.4,370.1L458.4,370.1L458.4,370.1L458.4,370.1z"/>
</svg>
