<?xml version="1.0" encoding="utf-8"?>
<!-- Generator: Adobe Illustrator 18.0.0, SVG Export Plug-In . SVG Version: 6.00 Build 0)  -->
<!DOCTYPE svg PUBLIC "-//W3C//DTD SVG 1.1//EN" "http://www.w3.org/Graphics/SVG/1.1/DTD/svg11.dtd">
<svg version="1.1" id="Layer_1" xmlns="http://www.w3.org/2000/svg" xmlns:xlink="http://www.w3.org/1999/xlink" x="0px" y="0px"
	 viewBox="0 0 612 792" enable-background="new 0 0 612 792" xml:space="preserve">
<polygon fill="#430F00" stroke="#231F20" stroke-miterlimit="10" points="210.1,285.9 220.6,284.3 232.7,280.4 243.6,276.3 
	250.5,275 251.5,271 251.2,263.4 247.3,255.2 245.2,249.4 243.1,249.4 241.1,243.4 240.3,236.1 241.5,232.2 244.5,232.2 
	243.1,220.7 246.6,212.3 254.2,204.5 262,198.6 269.8,196.4 281.5,196.4 288.6,199.6 297.1,206.1 301.9,214.8 303.1,221.2 
	304.7,233.7 308.4,234.3 309.2,239.8 309.2,246 307.1,249.7 301.9,253.6 296.9,257 295.6,265.3 295.6,269 297.2,271 304.9,276.8 
	316.2,278.9 327.2,281 336.3,284.9 341.2,289.6 345.2,296.9 348.1,303.7 350.9,315.5 353.7,325.1 358.7,332.7 365.8,343.1 
	372.1,351.2 375.4,358.5 378.5,363.7 383.5,370.2 385.1,372.5 402.7,372.5 423.8,372.5 435.7,368.9 456.4,363.1 474.1,356.5 
	482.4,349.3 483.2,342.6 486.1,337.4 493.3,340.5 499.1,340 511.6,339.7 512.9,342.6 529.9,351.2 533,354 530.9,356.1 528.4,358.7 
	523.1,359.8 512.6,359.6 512.4,362.7 521.8,363.7 523.1,366.9 522.3,369.7 515.8,370.7 500.7,372.5 493.9,377 479.2,377 455.2,385 
	430,395.8 413.3,401.5 395.3,406.2 380.9,409.8 371.5,404.7 362.3,391.1 346.3,372.1 336.8,360.2 329,349.6 324.1,357.9 
	323.5,366.8 325.4,383.3 327.9,399.7 327.9,409.8 329.5,423.5 333.2,445.6 334.4,463.7 335.6,489.3 336.8,523.2 213.2,517.5 
	217.5,484 223.1,447.7 220,412.7 219.4,386.5 216.6,366.6 214.4,351.2 204.6,373.3 197.6,385.6 192.9,397.3 190.8,412.9 
	190.8,435.8 188,448.4 188,465 188,475.7 188,487.7 190.1,492.4 194.7,501.6 194.7,514.4 190.4,526.5 172.9,529.6 165,510.8 
	165,491.7 169.8,486.2 171.7,480.9 167.9,458.9 165,430.9 166.8,407.4 168.6,391.5 175.6,366.2 185.2,335.8 192.3,309.6 
	200.3,291.3 "/>
<polygon fill="#80370B" stroke="#231F20" stroke-miterlimit="10" points="15.1,178 17.9,181.9 83.7,209.7 97.9,209.7 138.8,226.6 
	299.1,276.6 306.6,277.1 294.9,269.5 98.8,206.6 98.1,201.7 84.9,196.4 18.2,178 "/>
<polygon fill="#80370B" stroke="#231F20" stroke-miterlimit="10" points="339.6,286.5 484.7,338.4 482.9,342.4 482,348.4 
	345.2,296.9 "/>
<polygon fill="#80370B" stroke="#231F20" stroke-miterlimit="10" points="595.3,382.9 581.8,373.3 531.9,355 528.4,358.7 
	524.7,360.1 564.5,374.8 580.4,379.8 "/>
<polygon fill="#ED3026" stroke="#231F20" stroke-miterlimit="10" points="242.2,276.9 242.2,274.5 244.5,273.4 248.3,273.4 
	255.9,287.6 259.1,291.3 262.2,298.5 262.2,305.5 271.4,327.2 274.7,336.6 284.4,351.2 295.4,363 307.9,375.5 322.1,385.6 
	326.4,389.7 327.5,397.4 327.9,405.1 327.9,412.3 329.7,424.8 332.4,440.5 334,457 338.4,489.4 343.3,522.4 340.4,581.8 
	341.5,594.6 348.9,601.9 363.9,605.8 350.2,613.9 325.6,610.8 287.7,607.3 266.6,604.2 249.9,606.6 235.9,608.1 218.1,602.2 
	220.4,591.3 216,555.8 220.8,533 221.7,492.1 223.1,447.7 237.2,410.2 246.8,387.5 250.5,352.5 248.9,324.1 247.5,307.5 
	248.4,294.6 245.2,285.5 "/>
<polyline fill="none" stroke="#231F20" stroke-miterlimit="10" points="261.9,344.2 268.8,357.9 278.1,380.9 290.1,403.3 
	308.9,430.5 "/>
<polyline fill="none" stroke="#231F20" stroke-miterlimit="10" points="292.4,372.9 299.5,385.8 312.5,398.7 321.7,404.7 "/>
<polyline fill="none" stroke="#231F20" stroke-miterlimit="10" points="300.3,404.7 313.5,420.6 327.9,432.3 331,432.3 "/>
<polyline fill="none" stroke="#231F20" stroke-miterlimit="10" points="263.8,354.3 268.2,367.9 273.7,385.4 284.1,404.7 "/>
<polyline fill="none" stroke="#231F20" stroke-miterlimit="10" points="274,393.8 276.2,404.7 279.9,411.2 287.2,422.9 300.3,435 
	"/>
<polyline fill="none" stroke="#231F20" stroke-miterlimit="10" points="279.7,430.5 296.4,468.6 305.3,478 317.2,489.4 "/>
<polyline fill="none" stroke="#231F20" stroke-miterlimit="10" points="257.5,360 257.5,376.4 259.6,395 261.9,404.7 "/>
<polygon fill="#F3D7A2" stroke="#231F20" stroke-miterlimit="10" points="284.1,271.9 279.7,273.4 274,281.2 266.6,291.3 
	263.8,300.9 260.8,313.4 254.1,329 246.5,343.1 238,358.7 231.7,372.9 227.5,379.4 219.4,386.5 220.6,420.1 222.8,444.9 
	217.9,459.9 208.1,469.4 203.4,481.4 194.7,488.2 191.5,494.9 194.7,501.6 194.7,514.4 190.4,526.5 196.6,532.2 207.9,540.1 
	229.8,540.1 233.5,525.2 232.7,501.2 235.8,494.1 237.3,475.6 241.3,463.6 244.2,453.2 244.4,437.9 241.5,426.3 244.5,410.2 
	249.9,400.2 255.9,382.3 254.4,360 257.5,349.6 261.9,342.9 263.8,333.5 264.8,321.4 266.7,308.3 269.8,299 279.7,285.7 
	287.2,277.1 294.5,275.2 "/>
</svg>
