<?xml version="1.0" encoding="utf-8"?>
<!-- Generator: Adobe Illustrator 18.0.0, SVG Export Plug-In . SVG Version: 6.00 Build 0)  -->
<!DOCTYPE svg PUBLIC "-//W3C//DTD SVG 1.1//EN" "http://www.w3.org/Graphics/SVG/1.1/DTD/svg11.dtd">
<svg version="1.1" id="Layer_1" xmlns="http://www.w3.org/2000/svg" xmlns:xlink="http://www.w3.org/1999/xlink" x="0px" y="0px"
	 viewBox="-22.5 161.5 533 576" enable-background="new -22.5 161.5 533 576" xml:space="preserve">
<polygon fill="#430F00" stroke="#231F20" stroke-miterlimit="10" points="154.8,362.8 164,361.4 174.5,358 184,354.4 190,353.3 
	190.9,349.8 190.6,343.2 187.2,336 185.4,331 183.6,331 181.8,325.7 181.1,319.4 182.2,316 184.8,316 183.6,306 186.6,298.7 
	193.2,291.9 200,286.7 206.8,284.8 217,284.8 223.2,287.6 230.6,293.3 234.8,300.8 235.8,306.4 237.2,317.3 240.4,317.8 
	241.1,322.6 241.1,328 239.3,331.2 234.8,334.6 230.4,337.6 229.3,344.8 229.3,348 230.7,349.8 237.4,354.8 247.2,356.7 
	256.8,358.5 264.7,361.9 269,366 272.5,372.3 275,378.3 277.4,388.5 279.9,396.9 284.2,403.5 290.4,412.6 295.9,419.6 298.8,426 
	301.5,430.5 305.8,436.2 307.2,438.2 322.6,438.2 340.9,438.2 351.3,435 369.3,430 384.7,424.2 392,418 392.7,412.1 395.2,407.6 
	401.5,410.3 406.5,409.9 417.4,409.6 418.5,412.1 433.3,419.6 436,422.1 434.2,423.9 432,426.2 427.4,427.1 418.3,426.9 
	418.1,429.6 426.3,430.5 427.4,433.3 426.7,435.7 421.1,436.6 407.9,438.2 402,442.1 389.2,442.1 368.3,449.1 346.3,458.5 
	331.8,463.4 316.1,467.5 303.6,470.7 295.4,466.2 287.4,454.4 273.4,437.8 265.2,427.5 258.4,418.2 254.1,425.5 253.6,433.2 
	255.2,447.6 257.4,461.9 257.4,470.7 258.8,482.6 262,501.8 263.1,517.6 264.1,539.9 265.2,569.4 157.5,564.5 161.3,535.3 
	166.1,503.7 163.4,473.2 162.9,450.4 160.5,433 158.6,419.6 150,438.9 143.9,449.6 139.8,459.8 138,473.4 138,493.3 135.6,504.3 
	135.6,518.7 135.6,528.1 135.6,538.5 137.4,542.6 141.4,550.6 141.4,561.8 137.7,572.3 122.4,575 115.5,558.6 115.5,542 
	119.7,537.2 121.4,532.6 118.1,513.4 115.5,489 117.1,468.6 118.7,454.7 124.8,432.7 133.1,406.2 139.3,383.4 146.3,367.5 "/>
<polygon fill="#80370B" stroke="#231F20" stroke-miterlimit="10" points="-15,268.8 -12.6,272.2 44.7,296.4 57.1,296.4 92.7,311.1 
	232.3,354.7 238.9,355.1 228.7,348.5 57.9,293.7 57.3,289.4 45.8,284.8 -12.3,268.8 "/>
<polygon fill="#80370B" stroke="#231F20" stroke-miterlimit="10" points="267.6,363.3 394,408.5 392.4,412 391.6,417.2 272.5,372.3 
	"/>
<polygon fill="#80370B" stroke="#231F20" stroke-miterlimit="10" points="490.3,447.2 478.5,438.9 435.1,422.9 432,426.2 
	428.8,427.4 463.5,440.2 477.3,444.5 "/>
<polygon fill="#ED3026" stroke="#231F20" stroke-miterlimit="10" points="182.8,354.9 182.8,352.8 184.8,351.9 188.1,351.9 
	194.7,364.2 197.5,367.5 200.2,373.7 200.2,379.8 208.2,398.7 211.1,406.9 219.5,419.6 229.1,429.9 240,440.8 252.4,449.6 
	256.1,453.2 257.1,459.9 257.4,466.6 257.4,472.8 259,483.7 261.3,497.4 262.7,511.8 266.6,540 270.8,568.7 268.3,620.5 
	269.3,631.6 275.7,638 288.8,641.4 276.8,648.4 255.4,645.7 222.4,642.7 204,640 189.5,642.1 177.3,643.4 161.8,638.2 163.8,628.7 
	160,597.8 164.1,578 164.9,542.3 166.1,503.7 178.4,471 186.8,451.2 190,420.8 188.6,396 187.4,381.6 188.2,370.3 185.4,362.4 "/>
<polyline fill="none" stroke="#231F20" stroke-miterlimit="10" points="199.9,413.5 205.9,425.5 214,445.5 224.5,465 240.9,488.7 
	"/>
<polyline fill="none" stroke="#231F20" stroke-miterlimit="10" points="226.5,438.5 232.7,449.8 244,461 252,466.2 "/>
<polyline fill="none" stroke="#231F20" stroke-miterlimit="10" points="233.4,466.2 244.9,480.1 257.4,490.3 260.1,490.3 "/>
<polyline fill="none" stroke="#231F20" stroke-miterlimit="10" points="201.6,422.3 205.4,434.2 210.2,449.4 219.3,466.2 "/>
<polyline fill="none" stroke="#231F20" stroke-miterlimit="10" points="210.5,456.7 212.4,466.2 215.6,471.9 222,482.1 233.4,492.6 
	"/>
<polyline fill="none" stroke="#231F20" stroke-miterlimit="10" points="215.4,488.7 230,521.9 237.7,530.1 248.1,540 "/>
<polyline fill="none" stroke="#231F20" stroke-miterlimit="10" points="196.1,427.3 196.1,441.6 197.9,457.8 199.9,466.2 "/>
<polygon fill="#F3D7A2" stroke="#231F20" stroke-miterlimit="10" points="219.3,350.6 215.4,351.9 210.5,358.7 204,367.5 
	201.6,375.8 199,386.7 193.1,400.3 186.5,412.6 179.1,426.2 173.6,438.5 170,444.2 162.9,450.4 164,479.6 165.9,501.2 161.6,514.3 
	153.1,522.6 149,533 141.4,538.9 138.6,544.8 141.4,550.6 141.4,561.8 137.7,572.3 143.1,577.3 152.9,584.1 172,584.1 175.2,571.2 
	174.5,550.3 177.2,544.1 178.5,528 182,517.5 184.5,508.5 184.7,495.1 182.2,485 184.8,471 189.5,462.3 194.7,446.7 193.4,427.3 
	196.1,418.2 199.9,412.4 201.6,404.2 202.5,393.7 204.1,382.3 206.8,374.2 215.4,362.6 222,355.1 228.3,353.4 "/>
</svg>
