<?xml version="1.0" encoding="utf-8"?>
<!-- Generator: Adobe Illustrator 18.0.0, SVG Export Plug-In . SVG Version: 6.00 Build 0)  -->
<!DOCTYPE svg PUBLIC "-//W3C//DTD SVG 1.1//EN" "http://www.w3.org/Graphics/SVG/1.1/DTD/svg11.dtd">
<svg version="1.1" id="Layer_1" xmlns="http://www.w3.org/2000/svg" xmlns:xlink="http://www.w3.org/1999/xlink" x="0px" y="0px"
	 viewBox="-40 8 672 756" enable-background="new -40 8 672 756" xml:space="preserve">
<path fill="#2DA3DC" d="M62.3,142.2l7.4-9.9l4.9-1.9l6.2-8.6l11.7-11.7l6.2,2.5l16-24.1L141.2,59l6.8,11.7l12.3-2.5l9.9,1.9v38.9
	l11.1,12.3l12.3,2.5l14.8-4.9l16,4.3l30.8-1.9l11.7,7.4l26.5,25.9l15.4,11.1l10.5,12.3l9.9,3.7h22.8l14.2,6.2l17.3-2.5l11.1,4.3
	h10.5l12.3-0.6l16.7-26.5l6.2-8.6l13.6-5.6l9.9,0.6l6.8-4.3l29.6-4.3l9.3,4.9l7.4,14.2l11.1,6.2l24.1-4.3h16.7l-59.2,56.7
	l-1.2,253.5l45,41.3v2.5l-21,25.9l-4.9,1.9l-7.4,8l3.7,6.2l-22.2,8l-11.7,16h-19.1l-8,2.5l-0.6,4.3l-9.3,10.5v8l4.3,3.1l-10.5,16.7
	l-10.5,13v14.2l-9.3,20.4l-23.4,33.9l-13.6,5.6h-5.6l-79.6-56.1l-5.6-6.8l-2.5-8l3.1-6.2l-13-21.6L51.2,477.2l-17.9,1.2l16.7-62.9
	l2.5-17.9l12.3-11.7l7.4-14.8l10.5-9.9l4.9-11.7l6.8-6.8l-0.6-5.6h22.2l5.6-15.4v-9.3l14.8-17.3l1.9-13.6l-4.3-13l-9.3-8l5.6-8
	l-7.4-5.6l-8.6-3.7l-8-19.7l-14.8-14.2v-13L87,182.3l-8.6-1.9l1.2-11.1l-6.2-3.7L69.1,149L62.3,142.2L62.3,142.2L62.3,142.2
	L62.3,142.2z"/>
<circle fill="#7DB842" stroke="#000000" stroke-miterlimit="10" cx="143.7" cy="485.2" r="25.3"/>
</svg>
